<?xml version="1.0" encoding="utf-8"?>
<!-- Generator: Adobe Illustrator 17.0.0, SVG Export Plug-In . SVG Version: 6.00 Build 0)  -->
<!DOCTYPE svg PUBLIC "-//W3C//DTD SVG 1.1//EN" "http://www.w3.org/Graphics/SVG/1.1/DTD/svg11.dtd">
<svg version="1.1" id="Layer_1" xmlns="http://www.w3.org/2000/svg" xmlns:xlink="http://www.w3.org/1999/xlink" x="0px" y="0px"
	 viewBox="0 0 45 45" enable-background="new 0 0 45 45" xml:space="preserve">
<g>
	<path fill="#FFFFFF" d="M35.74,2.499H9.26c-3.733,0-6.76,3.027-6.76,6.76v26.482c0,3.734,3.027,6.76,6.76,6.76h12.967V26.207
		h-4.276v-5.499h4.276v-4.399c0-0.805-0.162-6.188,6.727-6.188h5.103v5.599h-3.818c-0.707,0-1.422,0.741-1.422,1.29v3.677h4.992
		c-0.2,2.821-0.612,5.52-0.612,5.52h-4.405v16.294h6.948c3.734,0,6.76-3.026,6.76-6.76V9.259C42.5,5.526,39.474,2.499,35.74,2.499"
		/>
</g>
</svg>
