<?xml version="1.0" encoding="utf-8"?>
<!-- Generator: Adobe Illustrator 17.0.0, SVG Export Plug-In . SVG Version: 6.00 Build 0)  -->
<!DOCTYPE svg PUBLIC "-//W3C//DTD SVG 1.1//EN" "http://www.w3.org/Graphics/SVG/1.1/DTD/svg11.dtd">
<svg version="1.1" id="Layer_1" xmlns="http://www.w3.org/2000/svg" xmlns:xlink="http://www.w3.org/1999/xlink" x="0px" y="0px"
	 viewBox="0 0 45 45" enable-background="new 0 0 45 45" xml:space="preserve">
<g>
	<path fill="#FFFFFF" d="M5.175,16.343c0.614,4.674,3.997,7.94,7.558,8.048c3.559,0.106,5.607-2.903,4.993-7.579
		c-0.614-4.675-3.659-8.511-7.219-8.617C6.948,8.089,4.561,11.667,5.175,16.343"/>
	<path fill="#FFFFFF" d="M15.441,34.51c-1.047-0.339-2.201-0.538-3.438-0.551c-3.867-0.043-7.294,1.761-8.872,4.271
		C3.632,40.389,5.564,42,7.875,42h13.498c0.011-0.175,0.022-0.351,0.022-0.531c0-0.487-0.06-0.962-0.17-1.424
		C20.643,37.763,18.32,36.512,15.441,34.51"/>
	<path fill="#FFFFFF" d="M37.125,3H7.875C5.183,3,3,5.182,3,7.875v2.118c2.268-2.36,5.702-3.946,9.497-3.946h13.208l-2.951,3.098
		h-3.467c2.446,1.402,3.748,4.288,3.748,7.469c0,2.92-1.618,5.274-3.904,7.06c-2.229,1.741-2.652,2.471-2.652,3.953
		c0,1.264,2.665,3.146,3.889,4.065c4.265,3.2,5.129,5.212,5.129,9.214c0,0.366-0.037,0.731-0.095,1.095h11.723
		C39.817,42,42,39.817,42,37.125V15.797h-6.094v6.094h-3.047v-6.094h-6.094V12.75h6.094V6.656h3.047v6.094H42V7.875
		C42,5.182,39.817,3,37.125,3"/>
	<path fill="#FFFFFF" d="M3,34.214c2.027-1.119,4.492-1.815,7.264-1.815c0.837,0,1.603-0.021,2.397-0.021
		c-1.051-1.021-1.899-1.902-1.899-3.446c0-0.917,0.293-1.79,0.701-2.574c-0.417,0.029-0.842,0.052-1.281,0.052
		c-3.053,0-5.481-1.045-7.181-2.748V34.214z"/>
</g>
</svg>
