<?xml version="1.0" encoding="utf-8"?>
<!-- Generator: Adobe Illustrator 18.1.1, SVG Export Plug-In . SVG Version: 6.00 Build 0)  -->
<svg version="1.1" id="XMLID_2_" xmlns="http://www.w3.org/2000/svg" xmlns:xlink="http://www.w3.org/1999/xlink" x="0px" y="0px"
	 viewBox="0 0 83.8633 92.3276" enable-background="new 0 0 83.8633 92.3276" xml:space="preserve">
<path id="gutsandglory-logo" fill="#19B7D0" d="M77.2109,18.1132L48.5859,1.5879c-3.6601-2.1172-9.6465-2.1172-13.3047,0
	L6.6562,18.1132C2.9941,20.2246,0,25.4101,0,29.6406v33.0508c0,4.2246,2.9941,9.414,6.6562,11.5254l28.625,16.5273
	c3.6582,2.1113,9.6446,2.1113,13.3047,0l28.625-16.5273c3.6621-2.1114,6.6524-7.3008,6.6524-11.5254V29.6406
	C83.8633,25.4101,80.873,20.2246,77.2109,18.1132z M41.166,77.2734c-17.1563,0-31.1094-13.9531-31.1094-31.1074
	c0-17.1524,13.9531-31.1115,31.1094-31.1115c13.0019,0,24.664,8.168,29.1719,20.3615h-3.7227
	C62.3087,25.2402,52.2871,18.5117,41.166,18.5117c-15.2481,0-27.6524,12.4081-27.6524,27.6543
	c0,15.2461,12.4043,27.6504,27.6524,27.6504c15.1133,0,27.4355-12.1953,27.6445-27.2618H41.166v-3.457h30.9961l0.0732,1.6504
	c0.0264,0.5371,0.0342,0.9883,0.0342,1.418C72.2695,63.3203,58.3164,77.2734,41.166,77.2734z M41.166,65.3652
	c7.1992,0,13.7637-4.0742,17.0371-10.3594H41.166v-3.4531h22.1465l-0.8398,2.3125c-3.2462,8.9492-11.8047,14.9551-21.3066,14.9551
	c-12.4981,0-22.6602-10.1602-22.6602-22.6543c0-12.4942,10.1621-22.6582,22.6602-22.6582c8.332,0,15.9512,4.5605,19.9258,11.9082
	h-4.0703c-3.5586-5.25-9.4454-8.4492-15.8555-8.4492c-10.5899,0-19.2012,8.6113-19.2012,19.1992
	C21.9648,56.75,30.5761,65.3652,41.166,65.3652z"/>
</svg>
