<?xml version="1.0" encoding="utf-8"?>
<!-- Generator: Adobe Illustrator 17.1.0, SVG Export Plug-In . SVG Version: 6.00 Build 0)  -->
<!DOCTYPE svg PUBLIC "-//W3C//DTD SVG 1.1//EN" "http://www.w3.org/Graphics/SVG/1.1/DTD/svg11.dtd">
<svg version="1.1" id="Layer_1" xmlns="http://www.w3.org/2000/svg" xmlns:xlink="http://www.w3.org/1999/xlink" x="0px" y="0px"
	 viewBox="0 0 70 40.561" enable-background="new 0 0 70 40.561" xml:space="preserve">
<path fill="#FFFFFF" d="M70,20.28v-0.004c0-5.434-2.029-10.525-5.714-14.324C60.565,2.115,55.544,0,50.147,0
	c-5.999,0-10.962,2.194-14.749,6.523c-0.113,0.132-0.216,0.271-0.326,0.403c-0.376-0.459-0.769-0.894-1.177-1.309
	C30.225,1.891,25.5,0,19.854,0C14.456,0,9.436,2.115,5.715,5.953C2.03,9.751,0,14.842,0,20.28c0,5.434,2.03,10.525,5.715,14.324
	c3.722,3.838,8.742,5.953,14.139,5.953c5.647,0,10.372-1.891,14.04-5.618c0.408-0.415,0.801-0.85,1.177-1.309
	c0.111,0.136,0.213,0.275,0.326,0.403c3.787,4.329,8.751,6.527,14.749,6.527c5.397,0,10.419-2.115,14.139-5.953
	C67.971,30.806,70,25.719,70,20.28L70,20.28z M19.854,29.445c-4.982,0-8.741-3.942-8.741-9.165c0-5.227,3.758-9.165,8.741-9.165
	c4.845,0,8.138,4.568,9.362,9.165C27.992,24.873,24.698,29.445,19.854,29.445z M30.124,16.562c-0.663-1.416-1.489-2.705-2.448-3.794
	c-2.178-2.47-4.885-3.778-7.823-3.778c-6.093,0-10.865,4.959-10.865,11.291H6.619c0-7.661,5.812-13.661,13.234-13.661
	c5.367,0,9.081,2.897,11.401,6.723C30.823,14.379,30.446,15.457,30.124,16.562z M32.316,11.084
	c-0.477-0.674-0.985-1.313-1.535-1.895c-2.901-3.072-6.679-4.692-10.927-4.692c-8.613,0-15.36,6.935-15.36,15.784h-2.37
	c0-10.178,7.788-18.154,17.73-18.154c5.834,0,10.595,2.298,13.914,6.539C33.248,9.428,32.763,10.234,32.316,11.084z M50.147,11.112
	c4.984,0,8.742,3.942,8.742,9.165v0.004l0,0c0,5.227-3.758,9.165-8.742,9.165c-4.785,0-8.257-4.457-9.458-9.165
	C41.89,15.568,45.362,11.112,50.147,11.112z M39.819,24.067c1.997,4.161,5.633,7.501,10.328,7.501
	c6.093,0,10.865-4.955,10.865-11.287h2.37c0,7.661-5.813,13.657-13.235,13.657c-5.309,0-9.034-2.924-11.377-6.679
	C39.174,26.245,39.517,25.172,39.819,24.067z M67.876,20.28c0,10.178-7.788,18.154-17.73,18.154c-6.633,0-10.966-2.988-13.779-6.575
	c0.491-0.738,0.943-1.516,1.362-2.334c2.703,3.742,6.777,6.539,12.417,6.539c8.613,0,15.361-6.935,15.361-15.784H67.876z"/>
</svg>
