<?xml version="1.0" encoding="utf-8"?>
<!-- Generator: Adobe Illustrator 17.0.0, SVG Export Plug-In . SVG Version: 6.00 Build 0)  -->
<!DOCTYPE svg PUBLIC "-//W3C//DTD SVG 1.1//EN" "http://www.w3.org/Graphics/SVG/1.1/DTD/svg11.dtd">
<svg version="1.1" id="Layer_1" xmlns="http://www.w3.org/2000/svg" xmlns:xlink="http://www.w3.org/1999/xlink" x="0px" y="0px"
	 viewBox="0 0 485 310" enable-background="new 0 0 485 310" xml:space="preserve">
<g>
	<g>
		<path fill="#FFFFFF" d="M190.241,0.038v88.434c0,10.079-5.425,20.238-17.559,20.238c-12.125,0-17.549-10.159-17.549-20.238V0.038
			h-35.802v87.795c0,36.742,18.45,56.166,53.351,56.166c34.91,0,53.361-19.424,53.361-56.166V0.038H190.241z"/>
		<path fill="#FFFFFF" d="M337.523,93.744c-6.994,9.417-17.688,14.825-29.356,14.825c-20.157,0-36.558-16.41-36.558-36.572
			c0-20.156,16.401-36.555,36.558-36.555c11.663,0,22.356,5.397,29.356,14.828l0.678,0.905l28.492-21.092l-0.685-0.923
			c-13.534-18.241-35.155-29.132-57.841-29.132c-39.685,0-71.975,32.278-71.975,71.969c0,39.686,32.29,71.982,71.975,71.982
			c22.69,0,44.307-10.888,57.841-29.133l0.685-0.919l-28.492-21.105L337.523,93.744z"/>
		<path fill="#FFFFFF" d="M412.186,55.51c0-11.432,6.4-17.977,17.551-17.977c11.155,0,17.554,6.545,17.554,17.977v19.434h-35.105
			V55.51z M429.737,0c-34.905,0-53.358,19.42-53.358,56.145v87.854h35.807v-33.627h35.105v33.627h35.802V56.145
			C483.093,19.42,464.646,0,429.737,0"/>
		<path fill="#FFFFFF" d="M61.19,54.307H35.668V32.833H61.19c5.933,0,10.742,4.815,10.742,10.753
			C71.932,49.503,67.122,54.307,61.19,54.307 M61.19,111.208H35.668V89.707H61.19c5.933,0,10.742,4.818,10.742,10.745
			C71.932,106.391,67.122,111.208,61.19,111.208 M93.903,72.014c8.453-7.565,13.806-18.515,13.806-30.71
			c0-22.747-18.509-41.265-41.264-41.265H40.367h-2.276H1.001v143.96h37.09h2.276h26.078c22.755,0,41.264-18.518,41.264-41.264
			C107.709,90.522,102.355,79.561,93.903,72.014"/>
	</g>
</g>
<g>
	<polygon fill="#FFFFFF" points="483.093,161.267 380.516,161.267 380.516,198.667 410.363,198.667 410.363,306.785 
		453.246,306.785 453.246,198.667 483.093,198.667 	"/>
	<path fill="#FFFFFF" d="M94.907,234.019c8.545-7.646,13.957-18.714,13.957-31.042c0-22.996-18.71-41.71-41.709-41.71H40.791h-2.302
		H1v145.518h37.489h2.302h26.364c22.999,0,41.709-18.714,41.709-41.709C108.864,252.733,103.452,241.651,94.907,234.019z
		 M61.839,273.638H36.037v-21.735h25.802c5.996,0,10.857,4.869,10.857,10.868C72.695,268.77,67.835,273.638,61.839,273.638z
		 M61.839,216.121H36.037v-21.706h25.802c5.996,0,10.857,4.869,10.857,10.868C72.695,211.267,67.835,216.121,61.839,216.121z"/>
	<path fill="#FFFFFF" d="M371.807,234.033v-0.015c0-19.501-7.28-37.772-20.507-51.403c-13.352-13.774-31.372-21.363-50.741-21.363
		c-21.528,0-39.34,7.875-52.931,23.41c-0.405,0.473-0.773,0.974-1.171,1.446c-1.35-1.647-2.76-3.207-4.224-4.696
		c-13.166-13.374-30.122-20.16-50.386-20.16c-19.369,0-37.385,7.588-50.741,21.363c-13.223,13.631-20.508,31.902-20.508,51.418
		c0,19.502,7.285,37.772,20.508,51.403c13.356,13.774,31.372,21.363,50.741,21.363c20.264,0,37.22-6.787,50.386-20.16
		c1.464-1.489,2.874-3.05,4.224-4.696c0.397,0.487,0.766,0.987,1.171,1.446c13.592,15.536,31.404,23.425,52.931,23.425
		c19.369,0,37.389-7.588,50.741-21.363C364.526,271.805,371.807,253.549,371.807,234.033L371.807,234.033z M191.846,266.923
		c-17.88,0-31.368-14.147-31.368-32.889c0-18.757,13.488-32.889,31.368-32.889c17.386,0,29.206,16.394,33.598,32.889
		C221.052,250.514,209.233,266.923,191.846,266.923z M228.705,220.689c-2.38-5.083-5.344-9.708-8.784-13.617
		c-7.818-8.863-17.53-13.559-28.075-13.559c-21.868,0-38.993,17.798-38.993,40.521h-8.501c0-27.491,20.858-49.026,47.494-49.026
		c19.262,0,32.589,10.395,40.914,24.126C231.211,212.856,229.858,216.723,228.705,220.689z M236.57,201.029
		c-1.711-2.419-3.534-4.71-5.509-6.801c-10.409-11.025-23.969-16.839-39.214-16.839c-30.91,0-55.123,24.886-55.123,56.644h-8.505
		c0-36.526,27.95-65.149,63.627-65.149c20.937,0,38.022,8.247,49.932,23.467C239.916,195.087,238.173,197.98,236.57,201.029z
		 M300.559,201.13c17.887,0,31.372,14.147,31.372,32.889v0.015l0,0c0,18.757-13.485,32.889-31.372,32.889
		c-17.171,0-29.632-15.993-33.942-32.889C270.927,217.124,283.387,201.13,300.559,201.13z M263.495,247.622
		c7.166,14.934,20.214,26.919,37.063,26.919c21.868,0,38.992-17.784,38.992-40.507h8.505c0,27.491-20.862,49.012-47.498,49.012
		c-19.051,0-32.421-10.495-40.829-23.969C261.183,255.439,262.411,251.588,263.495,247.622z M364.186,234.033
		c0,36.526-27.95,65.149-63.627,65.149c-23.805,0-39.354-10.725-49.448-23.596c1.761-2.649,3.383-5.441,4.886-8.376
		c9.7,13.43,24.319,23.468,44.562,23.468c30.91,0,55.126-24.886,55.126-56.644H364.186z"/>
</g>
</svg>
