<?xml version="1.0" encoding="utf-8"?>
<!-- Generator: Adobe Illustrator 18.1.1, SVG Export Plug-In . SVG Version: 6.00 Build 0)  -->
<svg version="1.1" id="Layer_1" xmlns="http://www.w3.org/2000/svg" xmlns:xlink="http://www.w3.org/1999/xlink" x="0px" y="0px"
	 viewBox="0 0 762.6 426.5" enable-background="new 0 0 762.6 426.5" xml:space="preserve">
<g>
	<g>
		<g>
			<g>
				<defs>
					<rect id="SVGID_1_" x="0" y="0" width="762.6" height="426.5"/>
				</defs>
				<clipPath id="SVGID_2_">
					<use xlink:href="#SVGID_1_"  overflow="visible"/>
				</clipPath>
				<path clip-path="url(#SVGID_2_)" fill="#00BBD6" d="M541.4,418.8c-63.2,0-119.8-28.7-157.5-73.7c2.6-3.6,5.1-7.3,7.5-11.1
					c35.4,43.9,89.5,72,150.1,72c105.1,0,190.8-84.6,192.6-189.4h12.8C745,328.4,653.6,418.8,541.4,418.8 M221.3,7.7
					c63.5,0,120.3,28.9,158.1,74.3c-2.6,3.5-5.2,7.2-7.7,10.9c-35.3-44.1-89.6-72.4-150.4-72.4c-105.1,0-190.8,84.6-192.6,189.4
					H15.8C17.6,98.1,109.1,7.7,221.3,7.7 M401.8,315.7c31.6,42.9,82.3,70.8,139.5,70.8c94.4,0,171.3-75.9,173.1-169.8h12.8
					c-1.8,101-84.5,182.7-185.9,182.7c-59.3,0-112.2-27.9-146.3-71.3C397.4,324,399.7,319.9,401.8,315.7 M360.9,111
					c-31.5-43-82.4-70.9-139.7-70.9C126.9,40.1,50,116,48.2,209.9H35.3c1.8-101,84.5-182.6,185.9-182.6
					c59.5,0,112.5,28.1,146.6,71.7C365.5,102.9,363.2,106.9,360.9,111 M411.4,295.1c27.2,43.1,75.3,71.8,129.9,71.8
					c83.6,0,151.8-67.1,153.6-150.3h12.8C706,306.9,632,379.7,541.4,379.7c-56.2,0-106-28-136.1-70.8
					C407.4,304.5,409.5,299.8,411.4,295.1 M351.1,131.2c-27.3-43-75.2-71.6-129.8-71.6c-83.6,0-151.8,67.1-153.6,150.3H54.9
					c1.8-90.2,75.7-163.1,166.4-163.1c56.2,0,106,28.1,136.2,70.9C355.2,122.1,353.1,126.6,351.1,131.2 M420.5,270.9
					c21.6,45.2,67.6,76.5,120.9,76.5c72.8,0,132.1-58.4,133.9-130.7h12.9c-1.8,79.5-66.9,143.6-146.8,143.6
					c-54,0-101.3-29.3-126.8-72.8C416.7,282,418.6,276.5,420.5,270.9 M341.9,155c-21.7-44.8-67.5-75.8-120.6-75.8
					c-72.8,0-132.1,58.4-133.9,130.7H74.4c1.8-79.5,66.9-143.6,146.8-143.6c53.9,0,101,29.1,126.6,72.5
					C345.7,144.1,343.7,149.5,341.9,155 M221.3,98.7c-62,0-112.6,49.6-114.4,111.2H94.1c1.8-68.7,58.1-124,127.2-124
					c52.9,0,98.3,32.4,117.6,78.4c-2.3,7.4-4.3,14.9-6.2,22.7C320.8,136.5,275.4,98.7,221.3,98.7 M221.3,321.1
					c-59.5,0-107.8-48.4-107.8-107.8c0-59.5,48.4-107.8,107.8-107.8c56.8,0,103.4,44.2,107.4,100.1
					C317.1,263.4,279.7,321.1,221.3,321.1 M541.4,321.1c-58,0-105.2-46-107.6-103.4C446,161,483.4,105.4,541.4,105.4
					c59.5,0,107.8,48.4,107.8,107.8C649.2,272.7,600.8,321.1,541.4,321.1 M429.5,237.8c11.3,51.4,57.1,90.1,111.8,90.1
					c62,0,112.6-49.6,114.4-111.2h12.8c-1.8,68.7-58.1,124-127.2,124c-53.3,0-98.9-32.9-117.9-79.4
					C425.7,253.6,427.7,245.8,429.5,237.8 M753.6,213.3C753.6,96.2,658.4,1,541.4,1c-65,0-119.4,27-157.9,75.6
					C344.5,30.4,286.3,1,221.3,1C105.4,1,10.9,94.4,9.1,209.9H9v3.4c0,117,95.2,212.3,212.3,212.3c67,0,120.8-25.9,158.5-74.9
					c39,45.8,97,74.9,161.6,74.9c115.9,0,210.4-93.4,212.2-208.9h0.1V213.3z"/>
			</g>
		</g>
	</g>
</g>
</svg>
