<?xml version="1.0" encoding="utf-8"?>
<!-- Generator: Adobe Illustrator 17.0.0, SVG Export Plug-In . SVG Version: 6.00 Build 0)  -->
<!DOCTYPE svg PUBLIC "-//W3C//DTD SVG 1.1//EN" "http://www.w3.org/Graphics/SVG/1.1/DTD/svg11.dtd">
<svg version="1.1" id="Layer_1" xmlns="http://www.w3.org/2000/svg" xmlns:xlink="http://www.w3.org/1999/xlink" x="0px" y="0px"
	 viewBox="21.5 6 77 12" enable-background="new 21.5 6 77 12" xml:space="preserve">
<g>
	<g>
		<g>
			<path fill="#FFFFFF" d="M36.489,6.428v6.847c0,0.78-0.42,1.567-1.359,1.567c-0.939,0-1.359-0.787-1.359-1.567V6.428h-2.772v6.797
				c0,2.845,1.428,4.348,4.13,4.348c2.703,0,4.131-1.504,4.131-4.348V6.428H36.489z"/>
			<path fill="#FFFFFF" d="M47.891,13.683c-0.541,0.729-1.369,1.148-2.273,1.148c-1.561,0-2.83-1.27-2.83-2.831
				c0-1.56,1.27-2.83,2.83-2.83c0.903,0,1.731,0.418,2.273,1.148l0.052,0.07l2.206-1.633l-0.053-0.071
				c-1.048-1.412-2.722-2.255-4.478-2.255c-3.072,0-5.572,2.499-5.572,5.572c0,3.072,2.5,5.573,5.572,5.573
				c1.757,0,3.43-0.843,4.478-2.255l0.053-0.071l-2.206-1.634L47.891,13.683z"/>
			<path fill="#FFFFFF" d="M53.672,10.723c0-0.885,0.495-1.392,1.359-1.392c0.864,0,1.359,0.507,1.359,1.392v1.505h-2.718V10.723z
				 M55.031,6.425c-2.702,0-4.131,1.503-4.131,4.347v6.802h2.772V14.97h2.718v2.603h2.772v-6.802
				C59.161,7.929,57.733,6.425,55.031,6.425"/>
			<path fill="#FFFFFF" d="M26.498,10.63h-1.976V8.967h1.976c0.459,0,0.832,0.373,0.832,0.832
				C27.33,10.258,26.957,10.63,26.498,10.63 M26.498,15.035h-1.976V13.37h1.976c0.459,0,0.832,0.373,0.832,0.832
				C27.33,14.662,26.957,15.035,26.498,15.035 M29.031,12c0.654-0.586,1.069-1.433,1.069-2.378c0-1.761-1.433-3.195-3.195-3.195
				h-2.019H24.71h-2.871v11.145h2.871h0.176h2.019c1.762,0,3.195-1.434,3.195-3.195C30.099,13.433,29.685,12.585,29.031,12"/>
		</g>
	</g>
	<polygon fill="#FFFFFF" points="98.162,6.428 89.9,6.428 89.9,9.293 92.389,9.293 92.389,17.573 95.673,17.573 95.673,9.293 
		98.162,9.293 	"/>
	<g>
		<path fill="#FFFFFF" d="M65.498,10.63h-1.976V8.967h1.976c0.459,0,0.832,0.373,0.832,0.832
			C66.33,10.258,65.957,10.63,65.498,10.63 M65.498,15.035h-1.976V13.37h1.976c0.459,0,0.832,0.373,0.832,0.832
			C66.33,14.662,65.957,15.035,65.498,15.035 M68.031,12c0.655-0.586,1.069-1.433,1.069-2.378c0-1.761-1.433-3.195-3.194-3.195
			h-2.019H63.71h-2.871v11.145h2.871h0.177h2.019c1.761,0,3.194-1.434,3.194-3.195C69.1,13.433,68.685,12.585,68.031,12"/>
		<path fill="#FFFFFF" d="M83.803,17.398c-1.659,0-3.146-0.753-4.137-1.935c0.068-0.094,0.133-0.192,0.196-0.292
			c0.929,1.151,2.35,1.891,3.941,1.891c2.761,0,5.011-2.223,5.059-4.972h0.337C89.151,15.024,86.75,17.398,83.803,17.398
			 M75.398,6.603c1.667,0,3.16,0.76,4.151,1.951c-0.069,0.093-0.136,0.189-0.201,0.288c-0.928-1.159-2.353-1.902-3.95-1.902
			c-2.761,0-5.011,2.223-5.059,4.972h-0.337C70.05,8.977,72.451,6.603,75.398,6.603 M80.139,14.69
			c0.829,1.126,2.162,1.859,3.664,1.859c2.478,0,4.498-1.993,4.545-4.46h0.337c-0.047,2.652-2.219,4.796-4.882,4.796
			c-1.558,0-2.947-0.734-3.841-1.873C80.023,14.908,80.082,14.8,80.139,14.69 M79.065,9.316c-0.828-1.129-2.163-1.863-3.667-1.863
			c-2.478,0-4.498,1.992-4.546,4.459h-0.337c0.047-2.653,2.219-4.796,4.882-4.796c1.562,0,2.955,0.738,3.85,1.883
			C79.184,9.103,79.123,9.208,79.065,9.316 M80.391,14.15c0.715,1.131,1.977,1.885,3.412,1.885c2.195,0,3.985-1.762,4.032-3.946
			h0.337c-0.048,2.369-1.988,4.283-4.369,4.283c-1.476,0-2.783-0.736-3.574-1.86C80.286,14.395,80.339,14.273,80.391,14.15
			 M78.806,9.847c-0.716-1.129-1.976-1.881-3.409-1.881c-2.195,0-3.985,1.762-4.032,3.946h-0.337
			c0.048-2.369,1.989-4.283,4.369-4.283c1.477,0,2.784,0.737,3.575,1.861C78.915,9.607,78.859,9.726,78.806,9.847 M80.628,13.513
			c0.567,1.186,1.775,2.009,3.175,2.009c1.912,0,3.469-1.532,3.517-3.433h0.339c-0.047,2.086-1.758,3.769-3.856,3.769
			c-1.418,0-2.659-0.769-3.329-1.912C80.528,13.805,80.58,13.661,80.628,13.513 M78.564,10.471
			c-0.571-1.176-1.774-1.991-3.166-1.991c-1.912,0-3.47,1.533-3.517,3.433h-0.339c0.047-2.087,1.758-3.77,3.856-3.77
			c1.414,0,2.652,0.765,3.324,1.903C78.666,10.184,78.613,10.325,78.564,10.471 M75.398,8.993c-1.629,0-2.956,1.302-3.004,2.92
			h-0.337c0.047-1.804,1.526-3.257,3.34-3.257c1.389,0,2.582,0.851,3.087,2.06c-0.059,0.193-0.114,0.392-0.162,0.596
			C78.01,9.984,76.819,8.993,75.398,8.993 M75.398,14.832c-1.561,0-2.832-1.27-2.832-2.832c0-1.561,1.27-2.832,2.832-2.832
			c1.492,0,2.716,1.162,2.821,2.629C77.915,13.317,76.933,14.832,75.398,14.832 M83.803,14.832c-1.522,0-2.764-1.207-2.826-2.715
			c0.322-1.49,1.303-2.949,2.826-2.949c1.561,0,2.832,1.271,2.832,2.832C86.635,13.562,85.364,14.832,83.803,14.832 M80.866,12.644
			c0.296,1.35,1.499,2.364,2.937,2.364c1.629,0,2.956-1.303,3.004-2.92h0.337c-0.047,1.803-1.526,3.257-3.34,3.257
			c-1.399,0-2.598-0.864-3.097-2.086C80.765,13.061,80.818,12.855,80.866,12.644 M89.377,12.001c0-3.074-2.5-5.574-5.574-5.574
			c-1.706,0-3.136,0.708-4.146,1.985c-1.023-1.212-2.553-1.984-4.26-1.984c-3.044,0-5.525,2.453-5.572,5.485h-0.002v0.088
			c0,3.074,2.501,5.574,5.574,5.574c1.759,0,3.172-0.681,4.161-1.968c1.023,1.203,2.546,1.968,4.245,1.968
			c3.044,0,5.524-2.453,5.572-5.486h0.002C89.377,12.089,89.377,12.001,89.377,12.001z"/>
	</g>
</g>
</svg>
