<?xml version="1.0" encoding="utf-8"?>
<!-- Generator: Adobe Illustrator 17.0.0, SVG Export Plug-In . SVG Version: 6.00 Build 0)  -->
<!DOCTYPE svg PUBLIC "-//W3C//DTD SVG 1.1//EN" "http://www.w3.org/Graphics/SVG/1.1/DTD/svg11.dtd">
<svg version="1.1" id="Layer_1" xmlns="http://www.w3.org/2000/svg" xmlns:xlink="http://www.w3.org/1999/xlink" x="0px" y="0px"
	 viewBox="21.5 6 77 12" enable-background="new 21.5 6 77 12" xml:space="preserve">
<g>
	<g>
		<g>
			<path fill="#FFFFFF" d="M36.472,6.427v6.847c0,0.78-0.42,1.567-1.359,1.567c-0.939,0-1.359-0.787-1.359-1.567V6.427h-2.772v6.797
				c0,2.845,1.428,4.348,4.13,4.348c2.703,0,4.131-1.504,4.131-4.348V6.427H36.472z"/>
			<path fill="#FFFFFF" d="M47.874,13.682c-0.541,0.729-1.369,1.148-2.273,1.148c-1.561,0-2.83-1.27-2.83-2.831
				c0-1.56,1.27-2.83,2.83-2.83c0.903,0,1.731,0.418,2.273,1.148l0.052,0.07l2.206-1.633l-0.053-0.071
				c-1.048-1.412-2.722-2.255-4.478-2.255c-3.072,0-5.572,2.499-5.572,5.572c0,3.072,2.5,5.573,5.572,5.573
				c1.757,0,3.43-0.843,4.478-2.255l0.053-0.071l-2.206-1.634L47.874,13.682z"/>
			<path fill="#FFFFFF" d="M53.654,10.722c0-0.885,0.495-1.392,1.359-1.392c0.864,0,1.359,0.507,1.359,1.392v1.505h-2.718V10.722z
				 M55.013,6.424c-2.702,0-4.131,1.503-4.131,4.347v6.802h2.772v-2.603h2.718v2.603h2.772v-6.802
				C59.144,7.928,57.716,6.424,55.013,6.424"/>
			<path fill="#FFFFFF" d="M26.481,10.629h-1.976V8.966h1.976c0.459,0,0.832,0.373,0.832,0.832
				C27.312,10.257,26.94,10.629,26.481,10.629 M26.481,15.034h-1.976v-1.665h1.976c0.459,0,0.832,0.373,0.832,0.832
				C27.312,14.661,26.94,15.034,26.481,15.034 M29.013,12c0.654-0.586,1.069-1.433,1.069-2.378c0-1.761-1.433-3.195-3.195-3.195
				h-2.019h-0.176h-2.871v11.145h2.871h0.176h2.019c1.762,0,3.195-1.434,3.195-3.195C30.082,13.432,29.668,12.584,29.013,12"/>
		</g>
	</g>
	<g>
		<polygon fill="#FFFFFF" points="98.179,6.367 90.238,6.367 90.238,9.262 92.548,9.262 92.548,17.632 95.868,17.632 95.868,9.262 
			98.179,9.262 		"/>
		<path fill="#FFFFFF" d="M68.126,11.999c0.662-0.592,1.081-1.449,1.081-2.403c0-1.78-1.449-3.229-3.229-3.229h-2.041h-0.178h-2.902
			v11.266h2.902h0.178h2.041c1.781,0,3.229-1.449,3.229-3.229C69.207,13.448,68.788,12.59,68.126,11.999z M65.566,15.066h-1.998
			v-1.683h1.998c0.464,0,0.841,0.377,0.841,0.841C66.406,14.689,66.03,15.066,65.566,15.066z M65.566,10.613h-1.998v-1.68h1.998
			c0.464,0,0.841,0.377,0.841,0.841C66.406,10.237,66.03,10.613,65.566,10.613z"/>
		<path fill="#FFFFFF" d="M89.563,12v-0.001c0-1.51-0.564-2.924-1.588-3.98c-1.034-1.066-2.429-1.654-3.928-1.654
			c-1.667,0-3.046,0.61-4.098,1.812c-0.031,0.037-0.06,0.075-0.091,0.112c-0.105-0.128-0.214-0.248-0.327-0.364
			c-1.019-1.035-2.332-1.561-3.901-1.561c-1.5,0-2.894,0.587-3.928,1.654c-1.024,1.055-1.588,2.47-1.588,3.981
			c0,1.51,0.564,2.924,1.588,3.98c1.034,1.066,2.429,1.654,3.928,1.654c1.569,0,2.882-0.525,3.901-1.561
			c0.113-0.115,0.222-0.236,0.327-0.364c0.031,0.038,0.059,0.076,0.091,0.112c1.052,1.203,2.431,1.814,4.098,1.814
			c1.5,0,2.895-0.587,3.928-1.654C89,14.924,89.563,13.511,89.563,12L89.563,12z M75.631,14.546c-1.384,0-2.428-1.095-2.428-2.546
			c0-1.452,1.044-2.546,2.428-2.546c1.346,0,2.261,1.269,2.601,2.546C77.892,13.276,76.977,14.546,75.631,14.546z M78.485,10.967
			c-0.184-0.394-0.414-0.752-0.68-1.054c-0.605-0.686-1.357-1.05-2.174-1.05c-1.693,0-3.019,1.378-3.019,3.137h-0.658
			c0-2.128,1.615-3.796,3.677-3.796c1.491,0,2.523,0.805,3.168,1.868C78.679,10.36,78.574,10.66,78.485,10.967z M79.094,9.445
			c-0.132-0.187-0.274-0.365-0.427-0.527c-0.806-0.854-1.856-1.304-3.036-1.304c-2.393,0-4.268,1.927-4.268,4.385h-0.658
			c0-2.828,2.164-5.044,4.926-5.044c1.621,0,2.944,0.638,3.866,1.817C79.353,8.985,79.218,9.209,79.094,9.445z M84.048,9.453
			c1.385,0,2.429,1.095,2.429,2.546V12l0,0c0,1.452-1.044,2.546-2.429,2.546c-1.329,0-2.294-1.238-2.628-2.546
			C81.753,10.691,82.718,9.453,84.048,9.453z M81.178,13.052c0.555,1.156,1.565,2.084,2.869,2.084c1.693,0,3.019-1.377,3.019-3.136
			h0.658c0,2.128-1.615,3.794-3.677,3.794c-1.475,0-2.51-0.813-3.161-1.856C80.999,13.657,81.094,13.359,81.178,13.052z M88.973,12
			c0,2.828-2.164,5.044-4.926,5.044c-1.843,0-3.047-0.83-3.828-1.827c0.136-0.205,0.262-0.421,0.378-0.648
			c0.751,1.04,1.883,1.817,3.45,1.817c2.393,0,4.268-1.927,4.268-4.385L88.973,12L88.973,12z"/>
	</g>
</g>
</svg>
