<?xml version="1.0" encoding="utf-8"?>
<!-- Generator: Adobe Illustrator 17.0.0, SVG Export Plug-In . SVG Version: 6.00 Build 0)  -->
<!DOCTYPE svg PUBLIC "-//W3C//DTD SVG 1.1//EN" "http://www.w3.org/Graphics/SVG/1.1/DTD/svg11.dtd">
<svg version="1.1" id="Layer_1" xmlns="http://www.w3.org/2000/svg" xmlns:xlink="http://www.w3.org/1999/xlink" x="0px" y="0px"
	 viewBox="0 0 485 310" enable-background="new 0 0 485 310" xml:space="preserve">
<g>
	<g>
		<path fill="#FFFFFF" d="M190.241,0.038v88.434c0,10.079-5.425,20.238-17.559,20.238c-12.125,0-17.549-10.159-17.549-20.238V0.038
			h-35.802v87.795c0,36.742,18.45,56.166,53.351,56.166c34.91,0,53.361-19.424,53.361-56.166V0.038H190.241z"/>
		<path fill="#FFFFFF" d="M337.523,93.744c-6.994,9.417-17.688,14.825-29.356,14.825c-20.157,0-36.558-16.41-36.558-36.572
			c0-20.156,16.401-36.555,36.558-36.555c11.663,0,22.356,5.397,29.356,14.828l0.678,0.905l28.492-21.092l-0.685-0.923
			c-13.534-18.241-35.155-29.132-57.841-29.132c-39.685,0-71.975,32.278-71.975,71.969c0,39.686,32.29,71.982,71.975,71.982
			c22.69,0,44.307-10.888,57.841-29.133l0.685-0.919l-28.492-21.105L337.523,93.744z"/>
		<path fill="#FFFFFF" d="M412.186,55.51c0-11.432,6.4-17.977,17.551-17.977c11.155,0,17.554,6.545,17.554,17.977v19.434h-35.105
			V55.51z M429.737,0c-34.905,0-53.358,19.42-53.358,56.145v87.854h35.807v-33.627h35.105v33.627h35.802V56.145
			C483.093,19.42,464.646,0,429.737,0"/>
		<path fill="#FFFFFF" d="M61.19,54.307H35.668V32.833H61.19c5.933,0,10.742,4.815,10.742,10.753
			C71.932,49.503,67.122,54.307,61.19,54.307 M61.19,111.208H35.668V89.707H61.19c5.933,0,10.742,4.818,10.742,10.745
			C71.932,106.391,67.122,111.208,61.19,111.208 M93.903,72.014c8.453-7.565,13.806-18.515,13.806-30.71
			c0-22.747-18.509-41.265-41.264-41.265H40.367h-2.276H1.001v143.96h37.09h2.276h26.078c22.755,0,41.264-18.518,41.264-41.264
			C107.709,90.522,102.355,79.561,93.903,72.014"/>
	</g>
	<polygon fill="#FFFFFF" points="483.094,163.045 376.38,163.045 376.38,200.044 408.528,200.044 408.528,307.006 450.947,307.006 
		450.947,200.044 483.094,200.044 	"/>
	<g>
		<path fill="#FFFFFF" d="M61.184,217.313H35.663v-21.474h25.521c5.929,0,10.747,4.815,10.747,10.753
			C71.931,212.509,67.113,217.313,61.184,217.313 M61.184,274.214H35.663v-21.501h25.521c5.929,0,10.747,4.818,10.747,10.745
			C71.931,269.397,67.113,274.214,61.184,274.214 M93.899,235.02c8.456-7.565,13.81-18.515,13.81-30.71
			c0-22.747-18.513-41.265-41.262-41.265H40.366h-2.281H1v143.961h37.085h2.281h26.081c22.749,0,41.262-18.519,41.262-41.269
			C107.709,253.528,102.355,242.568,93.899,235.02"/>
		<path fill="#FFFFFF" d="M297.628,304.741c-21.434,0-40.63-9.729-53.433-24.997c0.875-1.211,1.716-2.477,2.534-3.771
			c11.996,14.873,30.348,24.419,50.899,24.419c35.661,0,64.724-28.709,65.34-64.227h4.349
			C366.702,274.076,335.69,304.741,297.628,304.741 M189.056,165.31c21.534,0,40.816,9.816,53.615,25.206
			c-0.891,1.207-1.759,2.438-2.595,3.715c-11.989-14.967-30.399-24.572-51.023-24.572c-35.662,0-64.73,28.713-65.34,64.227h-4.35
			C119.979,195.968,150.996,165.31,189.056,165.31 M250.296,269.761c10.703,14.544,27.929,24.009,47.332,24.009
			c32.007,0,58.098-25.743,58.71-57.605h4.353c-0.612,34.259-28.657,61.951-63.063,61.951c-20.121,0-38.06-9.483-49.619-24.199
			C248.8,272.574,249.559,271.183,250.296,269.761 M236.426,200.353c-10.697-14.582-27.943-24.065-47.37-24.065
			c-32.011,0-58.103,25.733-58.717,57.598h-4.347c0.613-34.265,28.656-61.944,63.061-61.944c20.181,0,38.172,9.535,49.728,24.328
			C237.969,197.592,237.182,198.958,236.426,200.353 M253.559,262.786c9.24,14.61,25.536,24.346,44.069,24.346
			c28.351,0,51.471-22.764,52.082-50.967h4.353c-0.615,30.606-25.681,55.323-56.435,55.323c-19.065,0-35.941-9.511-46.17-24.02
			C252.192,265.953,252.887,264.378,253.559,262.786 M233.084,207.206c-9.247-14.588-25.522-24.293-44.028-24.293
			c-28.353,0-51.474,22.76-52.085,50.973h-4.353c0.614-30.603,25.686-55.319,56.438-55.319c19.074,0,35.957,9.514,46.182,24.04
			C234.483,204.105,233.772,205.642,233.084,207.206 M256.618,254.555c7.327,15.317,22.93,25.952,41.01,25.952
			c24.694,0,44.813-19.792,45.424-44.342h4.381c-0.611,26.95-22.711,48.688-49.805,48.688c-18.316,0-34.349-9.938-43.006-24.7
			C255.326,258.336,255.993,256.47,256.618,254.555 M229.952,215.26c-7.374-15.192-22.908-25.719-40.896-25.719
			c-24.696,0-44.815,19.795-45.427,44.345h-4.375c0.61-26.954,22.705-48.691,49.802-48.691c18.265,0,34.257,9.882,42.932,24.574
			C231.268,211.553,230.592,213.384,229.952,215.26 M189.056,196.173c-21.04,0-38.186,16.819-38.797,37.713h-4.349
			c0.613-23.298,19.709-42.066,43.146-42.066c17.941,0,33.354,10.992,39.874,26.603c-0.768,2.495-1.467,5.061-2.088,7.701
			C222.8,208.979,207.413,196.173,189.056,196.173 M189.056,271.599c-20.169,0-36.575-16.402-36.575-36.575
			c0-20.163,16.406-36.576,36.575-36.576c19.278,0,35.084,15.012,36.44,33.954C221.575,252.03,208.882,271.599,189.056,271.599
			 M297.628,271.599c-19.658,0-35.696-15.594-36.499-35.063c4.164-19.243,16.827-38.088,36.499-38.088
			c20.167,0,36.574,16.413,36.574,36.576C334.202,255.197,317.795,271.599,297.628,271.599 M259.691,243.338
			c3.817,17.433,19.368,30.54,37.937,30.54c21.04,0,38.187-16.826,38.797-37.713h4.348c-0.611,23.291-19.707,42.066-43.145,42.066
			c-18.071,0-33.563-11.158-40.003-26.943C258.385,248.714,259.07,246.061,259.691,243.338 M369.624,235.024
			c0-39.701-32.297-72-71.996-72c-22.039,0-40.509,9.143-53.546,25.639c-13.218-15.656-32.976-25.628-55.026-25.628
			c-39.321,0-71.36,31.681-71.972,70.851h-0.029v1.138c0,39.704,32.3,72,72.001,72c22.719,0,40.967-8.8,53.741-25.414
			c13.219,15.535,32.887,25.414,54.831,25.414c39.317,0,71.353-31.689,71.968-70.859h0.028V235.024z"/>
	</g>
</g>
<g>
</g>
<g>
</g>
<g>
</g>
<g>
</g>
<g>
</g>
<g>
</g>
</svg>
