<svg width="395.1" height="792" xmlns="http://www.w3.org/2000/svg">
 <g>
  <title>Shape - Half Circle, Blue</title>
  <g id="Layer_2"/>
  <g id="Layer_1_1_">
   <path id="svg_1" d="m1,0v12.4c211.10001,0 382.60004,171.99999 382.60004,383.6s-171.60004,383.59998 -382.60004,383.59998v12.40002c217.79999,0 395,-177.70001 395,-396.20001c0,-218.09999 -177.20001,-395.79999 -395,-395.79999" fill="#00BBD6"/>
   <path id="svg_2" d="m1,36.4v12.4c190.89999,0 346.20001,155.60001 346.20001,347.2s-155.30002,347.20001 -346.20001,347.20001v12.40002c197.79999,0 358.70001,-161.40002 358.70001,-359.60004s-160.90002,-359.6 -358.70001,-359.6" fill="#00BBD6"/>
   <path id="svg_3" d="m1,73v12.4c170.79999,0 309.79999,139.3 309.79999,310.6c0,171.40002 -138.89999,310.79999 -309.79999,310.79999v12.40002c177.70001,0 322.29999,-145 322.29999,-323.20004s-144.59998,-322.99997 -322.29999,-322.99997" fill="#00BBD6"/>
   <path id="svg_4" d="m1,109.4v12.6c150.79999,0 273.39999,122.89999 273.39999,274.20001s-122.60001,274.20001 -273.39999,274.20001v12.59998c157.70001,0 286,-128.79999 286,-286.79999s-128.29999,-286.80001 -286,-286.80001" fill="#00BBD6"/>
   <path id="svg_5" d="m1,145.8v12.39999c130.70001,0 237,106.7 237,237.8s-106.39999,237.79999 -237,237.79999v12.40002c137.60001,0 249.70001,-112.20001 249.70001,-250.20001c-0.10001,-137.79999 -112.10001,-250.2 -249.70001,-250.2" fill="#00BBD6"/>
   <path id="svg_6" d="m1,182.39999v12.60001c110.70001,0 200.79999,90.20001 200.79999,201.20001s-90.19998,201.20001 -200.79999,201.20001v12.40002c117.5,0 213.29999,-95.80005 213.29999,-213.80002c-0.09998,-117.70004 -95.69998,-213.60004 -213.29999,-213.60004" fill="#00BBD6"/>
  </g>
 </g>
</svg>
