<?xml version="1.0" encoding="utf-8"?>
<!-- Generator: Adobe Illustrator 18.1.1, SVG Export Plug-In . SVG Version: 6.00 Build 0)  -->
<svg version="1.1" id="XMLID_1_" xmlns="http://www.w3.org/2000/svg" xmlns:xlink="http://www.w3.org/1999/xlink" x="0px" y="0px"
	 viewBox="0 0 88.9653 105.9932" enable-background="new 0 0 88.9653 105.9932" xml:space="preserve">
<g id="tomorrowlab-logo">
	<g>
		<g>
			<g>
				<path fill="#19B7D0" d="M53.3756,105.3027c-0.0351,0-0.0674-0.0175-0.0869-0.0478c-0.0283-0.0479-0.0127-0.1113,0.0342-0.1406
					l34.7988-20.9122c0.0469-0.0273,0.1094-0.0146,0.1377,0.0352c0.0283,0.0479,0.0127,0.1084-0.0342,0.1387l-34.7978,20.9121
					C53.4108,105.2979,53.3932,105.3027,53.3756,105.3027L53.3756,105.3027z"/>
				<path fill="#19B7D0" d="M53.3756,105.9932c-0.2764,0-0.5351-0.1455-0.6777-0.3819c-0.2246-0.3759-0.1035-0.8613,0.2656-1.0869
					l34.8018-20.914c0.3671-0.2198,0.874-0.0879,1.0888,0.2734c0.1065,0.1777,0.1387,0.3906,0.0869,0.5976
					c-0.0517,0.2041-0.1787,0.375-0.3584,0.4854l-34.7998,20.9131C53.6549,105.9561,53.5162,105.9932,53.3756,105.9932
					L53.3756,105.9932z"/>
			</g>
		</g>
		<g>
			<g>
				<path fill="#19B7D0" d="M18.5768,84.4248c-0.0342,0-0.0664-0.0186-0.086-0.0488c-0.0292-0.0489-0.0136-0.1104,0.0352-0.1387
					l34.5391-20.6562c0.0488-0.0284,0.1113-0.0127,0.1396,0.0351c0.0274,0.0479,0.0127,0.1094-0.0361,0.1387L18.6295,84.4092
					C18.6129,84.4199,18.5944,84.4248,18.5768,84.4248L18.5768,84.4248z"/>
				<path fill="#19B7D0" d="M18.5768,85.1152c-0.2754,0-0.5352-0.1465-0.6777-0.3828c-0.2247-0.3799-0.1016-0.8642,0.2714-1.0888
					l34.5411-20.6553c0.3652-0.2188,0.8701-0.0869,1.0859,0.2724c0.2217,0.377,0.0996,0.8623-0.2725,1.085L18.983,85.0029
					C18.8678,85.0752,18.7242,85.1152,18.5768,85.1152L18.5768,85.1152z"/>
			</g>
		</g>
		<g>
			<g>
				<path fill="#19B7D0" d="M0.7916,32.1514c-0.0332,0-0.0674-0.0186-0.0869-0.0498c-0.0283-0.0479-0.0127-0.1114,0.0352-0.1387
					l52.584-31.2578c0.0478-0.0283,0.1093-0.0127,0.1377,0.0351c0.0292,0.0479,0.0136,0.1104-0.0352,0.1387L0.8434,32.1357
					C0.8268,32.1455,0.8092,32.1514,0.7916,32.1514L0.7916,32.1514z"/>
				<path fill="#19B7D0" d="M0.7916,32.8418c-0.2773,0-0.539-0.1494-0.6816-0.3897c-0.2217-0.373-0.0977-0.8603,0.2764-1.083
					L52.9703,0.1123C53.0924,0.0381,53.2321,0,53.3746,0c0.2784,0,0.5401,0.1484,0.6827,0.3887
					c0.1064,0.1787,0.1376,0.3925,0.0849,0.5976c-0.0517,0.2061-0.1806,0.377-0.3613,0.4854L1.1959,32.7295
					C1.0758,32.8027,0.9352,32.8418,0.7916,32.8418L0.7916,32.8418z"/>
			</g>
		</g>
		<g>
			<g>
				<path fill="#19B7D0" d="M36.3629,32.2314c-0.0342,0-0.0674-0.0166-0.0859-0.0478c-0.0293-0.0479-0.0147-0.1094,0.0322-0.1387
					l17.0127-10.4433c0.0479-0.0293,0.1104-0.0157,0.1397,0.0332c0.0292,0.0468,0.0136,0.1093-0.0333,0.1377L36.4157,32.2158
					C36.3991,32.2266,36.3815,32.2314,36.3629,32.2314L36.3629,32.2314z"/>
				<path fill="#19B7D0" d="M36.3629,32.9219c-0.2734,0-0.5322-0.1446-0.6748-0.377c-0.1103-0.1797-0.1445-0.3916-0.0957-0.5976
					c0.0488-0.2061,0.1758-0.3809,0.3565-0.4912l17.0117-10.4444c0.125-0.0752,0.2685-0.1162,0.414-0.1162
					c0.2774,0,0.5284,0.1406,0.6748,0.377c0.1114,0.1796,0.1455,0.3935,0.0957,0.5986c-0.0488,0.206-0.1757,0.3799-0.3554,0.4912
					L36.777,32.8047C36.6549,32.8809,36.5104,32.9219,36.3629,32.9219L36.3629,32.9219z"/>
			</g>
		</g>
		<g>
			<g>
				<path fill="#19B7D0" d="M71.1608,53.2354c-0.0332,0-0.0664-0.0176-0.086-0.0489c-0.0293-0.0478-0.0136-0.1094,0.0332-0.1386
					l17.0118-10.4424c0.0478-0.0303,0.1093-0.0157,0.1386,0.0322c0.0293,0.0478,0.0147,0.1103-0.0332,0.1387L71.2135,53.2197
					C71.1969,53.2295,71.1783,53.2354,71.1608,53.2354L71.1608,53.2354z"/>
				<path fill="#19B7D0" d="M71.1608,53.9258c-0.2774,0-0.5284-0.1406-0.6739-0.377c-0.1113-0.1816-0.1455-0.3935-0.0957-0.5996
					c0.0489-0.2051,0.1748-0.3789,0.3555-0.4902l17.0117-10.4424c0.124-0.0771,0.2676-0.1172,0.4141-0.1172
					c0.2773,0,0.5293,0.1406,0.6738,0.376c0.2305,0.373,0.1133,0.8613-0.2597,1.0898L71.5748,53.8096
					C71.4479,53.8857,71.3053,53.9258,71.1608,53.9258L71.1608,53.9258z"/>
			</g>
		</g>
		<g>
			<g>
				<path fill="#19B7D0" d="M36.6207,52.627c-0.0341,0-0.0674-0.0176-0.0869-0.0489c-0.0273-0.0488-0.0127-0.1094,0.0352-0.1386
					l51.5527-30.9073c0.0469-0.0283,0.1094-0.0136,0.1377,0.0342c0.0283,0.0488,0.0127,0.1104-0.0342,0.1387L36.6725,52.6123
					C36.6569,52.6221,36.6383,52.627,36.6207,52.627L36.6207,52.627z"/>
				<path fill="#19B7D0" d="M36.6207,53.3174c-0.2763,0-0.5361-0.1475-0.6787-0.3838c-0.2246-0.376-0.1015-0.8633,0.2715-1.0859
					l51.5527-30.9082c0.1211-0.0723,0.2627-0.1114,0.4063-0.1114c0.2773,0,0.5371,0.1475,0.6797,0.3848
					c0.1084,0.1797,0.1406,0.3926,0.0888,0.5986c-0.0517,0.2051-0.1787,0.377-0.3603,0.4854L37.028,53.2051
					C36.9049,53.2783,36.7643,53.3174,36.6207,53.3174L36.6207,53.3174z"/>
			</g>
		</g>
		<g>
			<g>
				<path fill="#19B7D0" d="M53.3756,105.3027c-0.0176,0-0.0351-0.0039-0.0527-0.0146L18.526,84.4092
					c-0.0488-0.0293-0.0644-0.0899-0.0352-0.1377c0.0293-0.0469,0.0909-0.0645,0.1387-0.0342l34.7979,20.877
					c0.0478,0.0293,0.0634,0.0927,0.0342,0.1406C53.443,105.2852,53.4098,105.3027,53.3756,105.3027L53.3756,105.3027z"/>
				<path fill="#19B7D0" d="M53.3756,105.9932c-0.1445,0-0.2871-0.0391-0.4101-0.1153L18.1696,85.002
					c-0.1788-0.1065-0.3077-0.2793-0.3604-0.4854c-0.0518-0.2061-0.0195-0.4199,0.0899-0.6025
					c0.1425-0.2354,0.4023-0.3829,0.6777-0.3829c0.1445,0,0.2861,0.0401,0.4082,0.1133l34.7969,20.8789
					c0.375,0.2237,0.497,0.71,0.2734,1.086C53.9127,105.8457,53.652,105.9932,53.3756,105.9932L53.3756,105.9932z"/>
			</g>
		</g>
		<g>
			<g>
				<path fill="#19B7D0" d="M88.1725,21.7871c-0.0176,0-0.0352-0.0039-0.0508-0.0127L53.3229,0.8955
					c-0.0469-0.0293-0.0625-0.0908-0.0342-0.1387c0.0283-0.0468,0.0908-0.0634,0.1387-0.0341l34.7978,20.8789
					c0.0469,0.0273,0.0625,0.0908,0.0342,0.1386C88.2408,21.7705,88.2067,21.7871,88.1725,21.7871L88.1725,21.7871z"/>
				<path fill="#19B7D0" d="M88.1725,22.4795c-0.1445,0-0.2871-0.04-0.4121-0.1162l-34.793-20.876
					c-0.374-0.2256-0.4941-0.7129-0.2715-1.085c0.1407-0.2373,0.4014-0.3857,0.6797-0.3857c0.1436,0,0.2832,0.0391,0.4082,0.1133
					l34.7969,20.8779c0.1807,0.1094,0.3096,0.2822,0.3603,0.4883c0.0508,0.206,0.0196,0.4189-0.0908,0.6006
					C88.7096,22.3311,88.4479,22.4795,88.1725,22.4795L88.1725,22.4795z"/>
			</g>
		</g>
		<g>
			<g>
				<path fill="#19B7D0" d="M88.1725,84.4248c-0.0176,0-0.0352-0.0049-0.0508-0.0146L0.7399,32.291
					c-0.0479-0.0293-0.0635-0.0898-0.0352-0.1387c0.0283-0.0468,0.0908-0.0644,0.1387-0.0351l87.3818,52.1201
					c0.0469,0.0283,0.0625,0.0898,0.0342,0.1387C88.2408,84.4062,88.2076,84.4248,88.1725,84.4248L88.1725,84.4248z"/>
				<path fill="#19B7D0" d="M88.1725,85.1152c-0.1426,0-0.2842-0.039-0.4063-0.1132L0.3864,32.8838
					c-0.3741-0.2236-0.4971-0.7109-0.2754-1.085c0.1445-0.2392,0.4043-0.3867,0.6806-0.3867c0.1436,0,0.2842,0.0391,0.4063,0.1133
					l87.3808,52.1182c0.1817,0.1084,0.3106,0.2822,0.3623,0.4873c0.0508,0.207,0.0196,0.4199-0.0908,0.6015
					C88.7145,84.9648,88.4528,85.1152,88.1725,85.1152L88.1725,85.1152z"/>
			</g>
		</g>
		<g>
			<g>
				<path fill="#19B7D0" d="M87.9147,42.4082c-0.0176,0-0.0352-0.0039-0.0518-0.0137l-34.54-20.8623
					c-0.0479-0.0283-0.0625-0.0898-0.0342-0.1386c0.0283-0.0479,0.0908-0.0635,0.1387-0.0342l34.54,20.8623
					c0.0469,0.0283,0.0625,0.0918,0.0342,0.1387C87.983,42.3906,87.9498,42.4082,87.9147,42.4082L87.9147,42.4082z"/>
				<path fill="#19B7D0" d="M87.9147,43.1006c-0.1426,0-0.2832-0.0401-0.4063-0.1133L52.9655,22.124
					c-0.3731-0.2256-0.4932-0.7138-0.2696-1.0859c0.1446-0.2373,0.4033-0.3838,0.6797-0.3838c0.1445,0,0.2871,0.04,0.4102,0.1152
					l34.539,20.8604c0.1807,0.1094,0.3086,0.2822,0.3594,0.4883c0.0508,0.206,0.0176,0.4189-0.0918,0.5996
					C88.4479,42.9541,88.1891,43.1006,87.9147,43.1006L87.9147,43.1006z"/>
			</g>
		</g>
		<g>
			<g>
				<path fill="#19B7D0" d="M71.1608,53.2061c-0.0176,0-0.0371-0.0059-0.0528-0.0137L36.3112,32.3135
					c-0.0479-0.0293-0.0635-0.0908-0.0352-0.1387c0.0293-0.0478,0.0918-0.0635,0.1387-0.0361l34.7978,20.8799
					c0.0479,0.0283,0.0635,0.0898,0.0342,0.1386C71.2282,53.1875,71.1949,53.2061,71.1608,53.2061L71.1608,53.2061z"/>
				<path fill="#19B7D0" d="M71.1608,53.8955c-0.1436,0-0.2842-0.0391-0.4082-0.1123L35.9557,32.9043
					c-0.1826-0.1084-0.3096-0.2813-0.3613-0.4873c-0.0508-0.2051-0.0186-0.418,0.0898-0.5996
					c0.1426-0.2363,0.4024-0.3828,0.6787-0.3828c0.1436,0,0.2862,0.039,0.4092,0.1142l34.7959,20.877
					c0.1807,0.1084,0.3096,0.2812,0.3603,0.4873c0.0518,0.2051,0.0196,0.418-0.0888,0.5996
					C71.6959,53.75,71.4362,53.8955,71.1608,53.8955L71.1608,53.8955z"/>
			</g>
		</g>
		<g>
			<g>
				<path fill="#19B7D0" d="M53.3756,105.3027c-0.0566,0-0.1015-0.0439-0.1015-0.1006v-41.499c0-0.0566,0.0449-0.1025,0.1015-0.1025
					c0.0547,0,0.0996,0.0459,0.0996,0.1025v41.499C53.4752,105.2588,53.4303,105.3027,53.3756,105.3027L53.3756,105.3027z"/>
				<path fill="#19B7D0" d="M53.3756,105.9932c-0.4375,0-0.793-0.3555-0.793-0.7911v-41.499c0-0.4375,0.3555-0.7929,0.793-0.7929
					c0.4356,0,0.791,0.3554,0.791,0.7929v41.499C54.1666,105.6377,53.8112,105.9932,53.3756,105.9932L53.3756,105.9932z"/>
			</g>
		</g>
		<g>
			<g>
				<path fill="#19B7D0" d="M18.5768,84.4248c-0.0547,0-0.0996-0.0459-0.0996-0.1006V43.082c0-0.0566,0.0449-0.1015,0.0996-0.1015
					c0.0566,0,0.1015,0.0449,0.1015,0.1015v41.2422C18.6783,84.3789,18.6334,84.4248,18.5768,84.4248L18.5768,84.4248z"/>
				<path fill="#19B7D0" d="M18.5768,85.1152c-0.4356,0-0.791-0.3564-0.791-0.791V43.082c0-0.4375,0.3554-0.7929,0.791-0.7929
					c0.4375,0,0.793,0.3554,0.793,0.7929v41.2422C19.3698,84.7588,19.0143,85.1152,18.5768,85.1152L18.5768,85.1152z"/>
			</g>
		</g>
		<g>
			<g>
				<path fill="#19B7D0" d="M88.1725,42.667c-0.0547,0-0.1006-0.0449-0.1006-0.1006V21.6865c0-0.0547,0.0459-0.1006,0.1006-0.1006
					c0.0566,0,0.1016,0.0459,0.1016,0.1006v20.8799C88.2741,42.6221,88.2291,42.667,88.1725,42.667L88.1725,42.667z"/>
				<path fill="#19B7D0" d="M88.1725,43.3574c-0.4365,0-0.791-0.3545-0.791-0.791V21.6865c0-0.4365,0.3545-0.791,0.791-0.791
					c0.4375,0,0.792,0.3545,0.792,0.791v20.8799C88.9645,43.0029,88.61,43.3574,88.1725,43.3574L88.1725,43.3574z"/>
			</g>
		</g>
		<g>
			<g>
				<path fill="#19B7D0" d="M53.3756,21.7871c-0.0566,0-0.1015-0.0439-0.1015-0.1006V1.0498c0-0.0557,0.0449-0.1006,0.1015-0.1006
					c0.0547,0,0.0996,0.0449,0.0996,0.1006v20.6367C53.4752,21.7432,53.4303,21.7871,53.3756,21.7871L53.3756,21.7871z"/>
				<path fill="#19B7D0" d="M53.3756,22.4795c-0.4375,0-0.793-0.3565-0.793-0.793V1.0498c0-0.4365,0.3555-0.792,0.793-0.792
					c0.4356,0,0.791,0.3555,0.791,0.792v20.6367C54.1666,22.123,53.8112,22.4795,53.3756,22.4795L53.3756,22.4795z"/>
			</g>
		</g>
		<g>
			<g>
				<path fill="#19B7D0" d="M71.1608,74.1143c-0.0567,0-0.1016-0.0459-0.1016-0.1026V53.1055c0-0.0567,0.0449-0.1016,0.1016-0.1016
					c0.0556,0,0.1015,0.0449,0.1015,0.1016v20.9062C71.2623,74.0684,71.2164,74.1143,71.1608,74.1143L71.1608,74.1143z"/>
				<path fill="#19B7D0" d="M71.1608,74.8047c-0.4375,0-0.791-0.3555-0.791-0.793V53.1055c0-0.4375,0.3535-0.793,0.791-0.793
					c0.4365,0,0.792,0.3555,0.792,0.793v20.9062C71.9528,74.4492,71.5973,74.8047,71.1608,74.8047L71.1608,74.8047z"/>
			</g>
		</g>
		<g>
			<g>
				<path fill="#19B7D0" d="M36.3629,53.0059c-0.0556,0-0.1006-0.045-0.1006-0.0997V32.2549c0-0.0557,0.045-0.0996,0.1006-0.0996
					c0.0557,0,0.1006,0.0439,0.1006,0.0996v20.6513C36.4635,52.9609,36.4186,53.0059,36.3629,53.0059L36.3629,53.0059z"/>
				<path fill="#19B7D0" d="M36.3629,53.6973c-0.4365,0-0.792-0.3545-0.792-0.7911V32.2549c0-0.4356,0.3555-0.791,0.792-0.791
					c0.4365,0,0.792,0.3554,0.792,0.791v20.6513C37.1549,53.3428,36.7994,53.6973,36.3629,53.6973L36.3629,53.6973z"/>
			</g>
		</g>
	</g>
</g>
</svg>
