<?xml version="1.0" encoding="utf-8"?>
<!-- Generator: Adobe Illustrator 17.0.0, SVG Export Plug-In . SVG Version: 6.00 Build 0)  -->
<!DOCTYPE svg PUBLIC "-//W3C//DTD SVG 1.1//EN" "http://www.w3.org/Graphics/SVG/1.1/DTD/svg11.dtd">
<svg version="1.1" id="Layer_1" xmlns="http://www.w3.org/2000/svg" xmlns:xlink="http://www.w3.org/1999/xlink" x="0px" y="0px"
	 viewBox="0 0 45 45" enable-background="new 0 0 45 45" xml:space="preserve">
<g>
	<path fill="#FFFFFF" d="M44.5,8.854c-1.619,0.718-3.359,1.203-5.185,1.421c1.864-1.117,3.295-2.886,3.969-4.994
		c-1.744,1.035-3.676,1.786-5.732,2.191c-1.647-1.755-3.993-2.851-6.589-2.851c-4.985,0-9.027,4.042-9.027,9.027
		c0,0.708,0.08,1.397,0.233,2.057c-7.502-0.376-14.154-3.97-18.606-9.432c-0.777,1.334-1.222,2.884-1.222,4.539
		c0,3.132,1.594,5.895,4.016,7.513c-1.48-0.047-2.872-0.453-4.089-1.129c-0.001,0.038-0.001,0.076-0.001,0.114
		c0,4.374,3.112,8.022,7.242,8.851c-0.758,0.207-1.555,0.317-2.379,0.317c-0.581,0-1.147-0.057-1.698-0.162
		c1.149,3.586,4.482,6.196,8.433,6.269c-3.09,2.421-6.982,3.864-11.212,3.864c-0.728,0-1.447-0.042-2.153-0.126
		c3.995,2.561,8.74,4.056,13.838,4.056c16.604,0,25.684-13.755,25.684-25.684c0-0.392-0.009-0.781-0.026-1.168
		C41.759,12.254,43.29,10.664,44.5,8.854"/>
</g>
</svg>
