<?xml version="1.0" encoding="UTF-8" standalone="no"?>
<svg viewBox="0 0 150 150" version="1.1" xmlns="http://www.w3.org/2000/svg" xmlns:xlink="http://www.w3.org/1999/xlink" xmlns:sketch="http://www.bohemiancoding.com/sketch/ns">
    <!-- Generator: Sketch 3.3.3 (12072) - http://www.bohemiancoding.com/sketch -->
    <title>Head</title>
    <desc>Created with Sketch.</desc>
    <defs>
        <path id="path-1" d="M0,0.398 L114.856,0.398 L114.856,126.94 L0,126.94"></path>
    </defs>
    <g id="Page-1" stroke="none" stroke-width="1" fill="none" fill-rule="evenodd" sketch:type="MSPage">
        <g id="Head" sketch:type="MSArtboardGroup">
            <g id="Imported-Layers" sketch:type="MSLayerGroup" transform="translate(15.000000, 11.000000)">
                <mask id="mask-2" sketch:name="Clip 2" fill="white">
                    <use xlink:href="#path-1"></use>
                </mask>
                <g id="Clip-2"></g>
                <path d="M114.441,53.077 C116.744,35.623 109.663,14.709 88.756,5.324 C72.215,-2.094 43.03,-2.08 27.639,11.954 C14.215,24.195 11.185,41.569 11.185,41.569 C11.185,41.569 9.802,48.025 9.802,50.169 C9.802,52.217 12.107,53.024 11.843,54.078 C11.582,55.134 8.995,58.144 7.021,61.436 C5.045,64.727 0,72.044 0,74.011 C0,75.988 1.182,76.719 3.553,77.505 C5.925,78.297 7.766,78.949 8.163,79.876 C8.558,80.798 7.033,83.431 6.952,85.306 C6.885,86.904 7.47,87.086 8.667,87.549 C10.151,88.127 12.435,88.201 12.435,88.201 C12.435,88.201 7.349,89.162 7.853,91.245 C8.378,93.409 11.441,93.844 11.709,95.538 C11.843,96.391 9.116,100.764 9.479,105.023 C9.95,110.58 15.209,113.065 23.554,111.729 C31.509,110.453 35.251,109.263 36.271,113.65 C36.916,116.412 36.849,121.073 38.032,126.341 C38.079,126.549 38.132,126.778 38.18,127 L99.23,127 C96.616,122.243 93.183,114.605 93.183,104.882 C93.183,98.217 93.848,88.316 98.624,83.055 C104.625,76.45 112.585,67.106 114.441,53.077 M89.232,66.91 C89.232,66.91 88.434,75.644 82.024,76.767 C76.536,77.726 72.893,72.439 72.893,72.439 L71.092,80.972 L67.25,80.972 C67.25,80.972 63.764,68.119 61.364,65.95 C58.96,63.787 55.238,63.188 55.238,63.188 C55.238,63.188 50.192,62.825 46.947,59.587 C43.703,56.343 46.706,52.379 46.706,52.379 C46.706,52.379 42.621,52.621 34.329,50.82 C26.039,49.02 28.566,43.733 28.566,43.733 C28.566,43.733 26.402,44.096 24.602,41.811 C23.319,40.184 22.385,36.222 24.724,31.599 C26.812,27.461 30.487,26.023 30.487,26.023 C30.487,26.023 29.13,24.296 31.992,21.885 C33.49,20.627 36.137,20.662 36.137,20.662 C36.137,20.662 36.782,17.886 40.767,16.085 C45.275,14.051 48.278,15.736 48.278,15.736 C48.278,15.736 49.48,13.096 52.966,11.894 C56.454,10.692 59.934,12.733 59.934,12.733 C59.934,12.733 62.292,10.604 66.619,10.604 C70.946,10.604 72.551,12.855 72.551,12.855 C72.551,12.855 75.158,11.517 78.316,12.613 C81.305,13.653 82.165,16.55 82.165,16.55 C82.165,16.55 84.322,15.017 87.325,16.221 C90.328,17.423 91.53,20.669 91.53,20.669 C91.53,20.669 93.599,20.366 95.663,22.193 C97.193,23.55 96.696,26.076 96.696,26.076 C96.696,26.076 99.244,26.922 100.767,29.973 C102.186,32.815 100.177,35.207 100.177,35.207 C100.177,35.207 104.383,38.33 104.981,46.5 C105.712,56.47 99.336,58.398 99.336,58.398 C99.336,58.398 100.601,61.563 98.377,65.009 C95.339,69.679 89.232,66.91 89.232,66.91" id="Fill-1" fill="#1A1C27" sketch:type="MSShapeGroup" mask="url(#mask-2)"></path>
            </g>
        </g>
    </g>
</svg>
