<?xml version="1.0" encoding="UTF-8" standalone="no"?>
<svg viewBox="0 0 150 110" version="1.1" xmlns="http://www.w3.org/2000/svg" xmlns:xlink="http://www.w3.org/1999/xlink" xmlns:sketch="http://www.bohemiancoding.com/sketch/ns">
    <!-- Generator: Sketch 3.3.3 (12072) - http://www.bohemiancoding.com/sketch -->
    <title>Short Screws</title>
    <desc>Created with Sketch.</desc>
    <defs>
        <path id="path-1" d="M0.536,0.228 L143.286,0.228 L143.286,53.94 L0.536,53.94"></path>
        <path id="path-3" d="M0.536,0.228 L143.286,0.228 L143.286,53.94 L0.536,53.94"></path>
        <path id="path-5" d="M0.536,0.228 L143.286,0.228 L143.286,53.94 L0.536,53.94"></path>
        <path id="path-7" d="M0.536,0.228 L143.286,0.228 L143.286,53.94 L0.536,53.94"></path>
    </defs>
    <g id="Page-1" stroke="none" stroke-width="1" fill="none" fill-rule="evenodd" sketch:type="MSPage">
        <g id="Short-Screws" sketch:type="MSArtboardGroup">
            <g id="Imported-Layers" sketch:type="MSLayerGroup" transform="translate(3.000000, 38.000000)">
                <path d="M123.91,10.152 L123.97,7.293 L133.935,5.534 L134.011,8.363 L123.91,10.152" id="Fill-1" fill="#0A0B09" sketch:type="MSShapeGroup"></path>
                <path d="M123.771,15.936 L123.84,13.076 L134.067,11.273 L134.138,14.098 L123.771,15.936" id="Fill-2" fill="#0A0B09" sketch:type="MSShapeGroup"></path>
                <path d="M123.64,21.73 L123.71,18.876 L134.197,17.017 L134.267,19.857 L123.64,21.73" id="Fill-3" fill="#0A0B09" sketch:type="MSShapeGroup"></path>
                <path d="M123.51,27.514 L123.579,24.674 L134.327,22.772 L134.397,25.596 L123.51,27.514" id="Fill-4" fill="#0A0B09" sketch:type="MSShapeGroup"></path>
                <path d="M123.38,33.313 L123.45,30.459 L134.458,28.511 L134.527,31.335 L123.38,33.313" id="Fill-5" fill="#0A0B09" sketch:type="MSShapeGroup"></path>
                <g id="Group-9">
                    <mask id="mask-2" sketch:name="Clip 7" fill="white">
                        <use xlink:href="#path-1"></use>
                    </mask>
                    <g id="Clip-7"></g>
                    <path d="M115.993,51.097 L123.204,41 L123.304,36.252 L134.582,34.265 L134.743,41 L141.954,51.097 C143.642,51.156 143.817,54.04 141.954,53.982 L115.993,53.982 C113.946,53.921 114.006,51.156 115.993,51.097" id="Fill-6" fill="#0A0B09" sketch:type="MSShapeGroup"></path>
                    <path d="M125.02,4.353 C125.151,3.402 125.34,2.405 125.556,1.408 L132.292,0.227 C132.522,1.134 132.728,2.059 132.898,2.952 L125.02,4.353" id="Fill-8" fill="#0A0B09" sketch:type="MSShapeGroup" mask="url(#mask-2)"></path>
                </g>
                <path d="M85.701,10.152 L85.761,7.293 L95.726,5.534 L95.802,8.363 L85.701,10.152" id="Fill-10" fill="#0A0B09" sketch:type="MSShapeGroup"></path>
                <path d="M85.561,15.936 L85.63,13.076 L95.857,11.273 L95.928,14.098 L85.561,15.936" id="Fill-11" fill="#0A0B09" sketch:type="MSShapeGroup"></path>
                <path d="M85.43,21.73 L85.5,18.876 L95.987,17.017 L96.057,19.857 L85.43,21.73" id="Fill-12" fill="#0A0B09" sketch:type="MSShapeGroup"></path>
                <path d="M85.301,27.514 L85.37,24.674 L96.118,22.772 L96.188,25.596 L85.301,27.514" id="Fill-13" fill="#0A0B09" sketch:type="MSShapeGroup"></path>
                <path d="M85.17,33.313 L85.24,30.459 L96.248,28.511 L96.317,31.335 L85.17,33.313" id="Fill-14" fill="#0A0B09" sketch:type="MSShapeGroup"></path>
                <g id="Group-18">
                    <mask id="mask-4" sketch:name="Clip 16" fill="white">
                        <use xlink:href="#path-3"></use>
                    </mask>
                    <g id="Clip-16"></g>
                    <path d="M77.783,51.097 L84.994,41 L85.094,36.252 L96.372,34.265 L96.533,41 L103.744,51.097 C105.432,51.156 105.607,54.04 103.744,53.982 L77.783,53.982 C75.736,53.921 75.796,51.156 77.783,51.097" id="Fill-15" fill="#0A0B09" sketch:type="MSShapeGroup" mask="url(#mask-4)"></path>
                    <path d="M86.734,4.353 C86.865,3.402 87.054,2.405 87.27,1.408 L94.006,0.227 C94.236,1.134 94.442,2.059 94.612,2.952 L86.734,4.353" id="Fill-17" fill="#0A0B09" sketch:type="MSShapeGroup" mask="url(#mask-4)"></path>
                </g>
                <path d="M48.099,10.152 L48.159,7.293 L58.124,5.534 L58.2,8.363 L48.099,10.152" id="Fill-19" fill="#0A0B09" sketch:type="MSShapeGroup"></path>
                <path d="M47.966,15.936 L48.035,13.076 L58.262,11.273 L58.333,14.098 L47.966,15.936" id="Fill-20" fill="#0A0B09" sketch:type="MSShapeGroup"></path>
                <path d="M47.836,21.73 L47.906,18.876 L58.393,17.017 L58.463,19.857 L47.836,21.73" id="Fill-21" fill="#0A0B09" sketch:type="MSShapeGroup"></path>
                <path d="M47.706,27.514 L47.775,24.674 L58.523,22.772 L58.593,25.596 L47.706,27.514" id="Fill-22" fill="#0A0B09" sketch:type="MSShapeGroup"></path>
                <path d="M47.575,33.313 L47.645,30.459 L58.653,28.511 L58.722,31.335 L47.575,33.313" id="Fill-23" fill="#0A0B09" sketch:type="MSShapeGroup"></path>
                <g id="Group-27">
                    <mask id="mask-6" sketch:name="Clip 25" fill="white">
                        <use xlink:href="#path-5"></use>
                    </mask>
                    <g id="Clip-25"></g>
                    <path d="M40.259,51.097 L47.47,41 L47.57,36.252 L58.848,34.265 L59.009,41 L66.22,51.097 C67.908,51.156 68.083,54.04 66.22,53.982 L40.259,53.982 C38.212,53.921 38.272,51.156 40.259,51.097" id="Fill-24" fill="#0A0B09" sketch:type="MSShapeGroup" mask="url(#mask-6)"></path>
                    <path d="M49.21,4.353 C49.341,3.402 49.53,2.405 49.746,1.408 L56.482,0.227 C56.712,1.134 56.918,2.059 57.088,2.952 L49.21,4.353" id="Fill-26" fill="#0A0B09" sketch:type="MSShapeGroup" mask="url(#mask-6)"></path>
                </g>
                <path d="M9.967,10.152 L10.027,7.293 L19.992,5.534 L20.068,8.363 L9.967,10.152" id="Fill-28" fill="#0A0B09" sketch:type="MSShapeGroup"></path>
                <path d="M9.827,15.936 L9.896,13.076 L20.123,11.273 L20.194,14.098 L9.827,15.936" id="Fill-29" fill="#0A0B09" sketch:type="MSShapeGroup"></path>
                <path d="M9.696,21.73 L9.766,18.876 L20.253,17.017 L20.323,19.857 L9.696,21.73" id="Fill-30" fill="#0A0B09" sketch:type="MSShapeGroup"></path>
                <path d="M9.567,27.514 L9.636,24.674 L20.384,22.772 L20.454,25.596 L9.567,27.514" id="Fill-31" fill="#0A0B09" sketch:type="MSShapeGroup"></path>
                <path d="M9.436,33.313 L9.506,30.459 L20.514,28.511 L20.583,31.335 L9.436,33.313" id="Fill-32" fill="#0A0B09" sketch:type="MSShapeGroup"></path>
                <g id="Group-36">
                    <mask id="mask-8" sketch:name="Clip 34" fill="white">
                        <use xlink:href="#path-7"></use>
                    </mask>
                    <g id="Clip-34"></g>
                    <path d="M2.049,51.097 L9.26,41 L9.36,36.252 L20.638,34.265 L20.799,41 L28.01,51.097 C29.698,51.156 29.873,54.04 28.01,53.982 L2.049,53.982 C0.002,53.921 0.062,51.156 2.049,51.097" id="Fill-33" fill="#0A0B09" sketch:type="MSShapeGroup" mask="url(#mask-8)"></path>
                    <path d="M11,4.353 C11.131,3.402 11.32,2.405 11.536,1.408 L18.272,0.227 C18.502,1.134 18.708,2.059 18.878,2.952 L11,4.353" id="Fill-35" fill="#0A0B09" sketch:type="MSShapeGroup" mask="url(#mask-8)"></path>
                </g>
            </g>
        </g>
    </g>
</svg>
