<?xml version="1.0" encoding="UTF-8" standalone="no"?>
<svg viewBox="0 0 150 150" version="1.1" xmlns="http://www.w3.org/2000/svg" xmlns:xlink="http://www.w3.org/1999/xlink" xmlns:sketch="http://www.bohemiancoding.com/sketch/ns">
    <!-- Generator: Sketch 3.3.3 (12072) - http://www.bohemiancoding.com/sketch -->
    <title>Screwdriver</title>
    <desc>Created with Sketch.</desc>
    <defs></defs>
    <g id="Page-1" stroke="none" stroke-width="1" fill="none" fill-rule="evenodd" sketch:type="MSPage">
        <g id="Screwdriver" sketch:type="MSArtboardGroup" fill="#0A0B09">
            <g id="Imported-Layers" sketch:type="MSLayerGroup" transform="translate(5.000000, 6.000000)">
                <path d="M68.782,71.561 L119.058,121.837 L120.587,126.135 L132.299,133 L133.223,132.077 L126.549,120.172 L122.245,118.651 L71.969,68.375 L68.782,71.561" id="Fill-1" sketch:type="MSShapeGroup"></path>
                <g id="Group-4" sketch:type="MSShapeGroup">
                    <path d="M56.003,71.765 L56.867,72.628 C58.728,74.489 61.745,74.489 63.604,72.63 L73.03,63.204 C74.891,61.344 74.889,58.329 73.028,56.468 L72.164,55.604 C70.13,57.638 65.954,56.778 62.854,53.679 C59.753,50.577 58.881,46.401 60.921,44.361 L18.556,1.996 C16.695,0.135 13.681,0.134 11.82,1.995 L2.394,11.421 C0.535,13.28 0.535,16.296 2.396,18.157 L44.768,60.529 C46.81,58.488 50.969,59.361 54.078,62.47 C57.178,65.569 58.045,69.723 56.003,71.765 L56.003,71.765 Z M16.038,7.08 C15.483,6.525 15.482,5.616 16.038,5.061 C16.594,4.505 17.502,4.505 18.058,5.061 L55.455,42.458 C56.011,43.014 56.011,43.922 55.455,44.478 C54.9,45.033 53.991,45.034 53.436,44.478 L16.038,7.08 L16.038,7.08 Z M10.753,12.366 C10.197,11.81 10.197,10.902 10.753,10.346 C11.309,9.79 12.21,9.798 12.765,10.353 L50.163,47.751 C50.718,48.307 50.726,49.207 50.17,49.763 C49.614,50.319 48.706,50.319 48.15,49.763 L10.753,12.366 L10.753,12.366 Z M44.892,55.041 C44.336,55.597 43.428,55.597 42.872,55.041 L5.475,17.644 C4.919,17.088 4.919,16.18 5.475,15.624 C6.029,15.07 6.932,15.076 7.487,15.631 L44.885,53.029 C45.44,53.585 45.446,54.487 44.892,55.041 L44.892,55.041 Z" id="Fill-2"></path>
                </g>
            </g>
        </g>
    </g>
</svg>
