<?xml version="1.0" encoding="UTF-8" standalone="no"?>
<svg class="schematic__img" viewBox="0 0 855 1008" version="1.1" xmlns="http://www.w3.org/2000/svg" xmlns:xlink="http://www.w3.org/1999/xlink" xmlns:sketch="http://www.bohemiancoding.com/sketch/ns">
    <!-- Generator: Sketch 3.3.3 (12072) - http://www.bohemiancoding.com/sketch -->
    <title>Bike 2 Copy</title>
    <desc>Created with Sketch.</desc>
    <defs>
        <rect id="path-1" x="10" y="8" width="855" height="1008"></rect>
    </defs>
    <g id="Page-1" stroke="none" stroke-width="1" fill="none" fill-rule="evenodd" sketch:type="MSPage">
        <g id="Bike-2-Copy" sketch:type="MSArtboardGroup">
            <path d="M946.416,510.031772 L772.385,688.566772 C758.032,678.254772 740.482,672.129772 721.385,672.129772 L707.197,672.129772 L580.882,276.665772 L946.255,291.157772 C946.13,282.409772 946.227,273.650772 946.316,264.842772 L572.281,249.999772 L534.48,131.830772 C555.103,126.511772 574.2,119.189772 590.719,119.189772 C624.478,119.189772 645.905,115.230772 652.03,109.104772 C658.155,102.979772 631.407,85.428772 575.809,85.428772 C468.425,85.428772 398.596,37.501772 411.96,68.353772 C411.96,68.353772 419.446,113.064772 465.847,131.417772 C480.345,137.152772 494.698,138.121772 508.557,136.739772 L549.638,265.384772 L475.849,423.603772 C441.45,409.826772 403.979,402.175772 364.671,402.175772 C199.359,402.175772 65,536.637772 65,701.867772 C65,867.077772 199.441,1001.53877 364.671,1001.53877 C484.862,1001.53877 588.78,930.327772 636.481,827.935772 C660.321,834.143772 680.304,839.299772 693.503,842.680772 C697.38,843.959772 701.402,845.011772 705.506,845.733772 C708.826,846.536772 710.826,847.093772 710.991,847.093772 C711.156,847.176772 711.403,847.176772 711.631,847.176772 C712.125,847.176772 712.518,847.032772 712.847,846.784772 C715.672,847.032772 718.395,847.176772 721.22,847.176772 C737.1,847.176772 751.907,842.906772 764.734,835.585772 L790.905,873.037772 L773.354,873.037772 C766.817,873.037772 761.497,878.358772 761.497,884.875772 C761.497,891.412772 766.817,896.733772 773.354,896.733772 L837.781,896.733772 C844.318,896.733772 849.639,891.412772 849.639,884.875772 C849.639,878.358772 844.318,873.037772 837.781,873.037772 L810.166,873.037772 L777.686,826.553772 C796.782,810.446772 808.867,786.443772 808.867,759.529772 C808.867,739.648772 802.185,721.439772 791.07,706.776772 L946.416,547.360772 L946.416,510.031772 L946.416,510.031772 Z M561.476,302.361772 L679.582,672.129772 L662.899,672.129772 C652.587,568.211772 588.945,479.759772 499.854,434.575772 L561.476,302.361772 L561.476,302.361772 Z M488.656,458.332772 C568.817,499.331772 626.252,578.687772 636.398,672.048772 L389.006,672.048772 L488.656,458.332772 L488.656,458.332772 Z M364.671,975.347772 C213.939,975.347772 91.253,852.661772 91.253,701.929772 C91.253,551.135772 213.939,428.532772 364.671,428.532772 C399.957,428.532772 433.716,435.296772 464.733,447.525772 L360.01,672.129772 L358.547,672.129772 C341.718,672.129772 324.869,687.432772 321.735,705.560772 C320.126,714.984772 320.456,738.266772 357.66,751.239772 C394.389,764.128772 519.59,797.475772 610.62,821.254772 C566.239,912.365772 472.694,975.347772 364.671,975.347772 L364.671,975.347772 Z M612.785,816.408772 C521.838,792.649772 396.1,759.137772 359.351,746.248772 C335.841,738.020772 323.983,723.439772 326.89,706.363772 C329.468,691.225772 343.574,678.089772 357.433,677.450772 L346.544,700.734772 C344.853,704.507772 345.018,708.857772 346.956,712.488772 C348.874,716.118772 352.504,718.613772 356.608,719.252772 L631.799,759.858772 C627.53,779.595772 621.096,798.526772 612.785,816.408772 L612.785,816.408772 Z M636.151,733.916772 L377.891,695.887772 L386.511,677.450772 L636.955,677.450772 L636.955,677.367772 C637.677,685.430772 638.089,693.640772 638.089,701.929772 C638.089,712.736772 637.367,723.439772 636.151,733.916772 L636.151,733.916772 Z M638.646,823.171772 C641.307,817.046772 643.884,810.942772 646.215,804.734772 C652.587,815.355772 661.125,824.635772 671.272,831.626772 C661.682,829.131772 650.649,826.326772 638.646,823.171772 L638.646,823.171772 Z M664.115,693.473772 C663.95,688.091772 663.703,682.771772 663.228,677.450772 L681.191,677.450772 L682.47,681.307772 C675.871,684.627772 669.663,688.647772 664.115,693.473772 L664.115,693.473772 Z" id="Imported-Layers" fill="#E4E5E3" sketch:type="MSShapeGroup"></path>
            <g id="Imported-Layers" sketch:type="MSLayerGroup">
                <g transform="translate(15.000000, 10.000000)" sketch:type="MSShapeGroup">
                    <path d="M376.559,171.086 L342.396,342.907 L48.994,342.907 L14.83,171.086 L376.559,171.086 L376.559,171.086 Z" id="Stroke-1" stroke="#E4E5E3" stroke-width="5.024" fill="none"></path>
                    <path d="M5.034,145.463 L386.357,145.463 L386.357,171.086 L5.034,171.086 L5.034,145.463 Z" id="Fill-2" stroke="none" fill="#FFFFFF" fill-rule="evenodd"></path>
                    <path d="M5.034,171.086 L386.357,171.086 L386.357,145.463 L5.034,145.463 L5.034,171.086 Z M271.809,136.923 L271.809,126.373 L119.581,126.373 L119.581,136.923 L162.286,136.923 L162.286,145.213 L230.109,145.213 L230.109,136.923 L271.809,136.923 L271.809,136.923 Z" id="Stroke-3" stroke="#1A1918" stroke-width="5.024" fill="none"></path>
                    <path d="M351.44,171.086 L317.277,342.907 L74.114,342.907 L39.95,171.086 L351.44,171.086" id="Fill-4" stroke="none" fill="#E4E5E3" fill-rule="evenodd"></path>
                    <path d="M0.512,121.851 L389.371,121.851 L389.371,290.658 L0.512,290.658 L0.512,121.851 Z" id="Fill-5" stroke="none" fill="#E4E5E3" fill-rule="evenodd"></path>
                    <path d="M0.512,290.658 L389.371,290.658 L389.371,121.851 L0.512,121.851 L0.512,290.658 Z" id="Stroke-6" stroke="#FFFFF8" stroke-width="5.024" fill="none"></path>
                    <path d="M36.991,267.69 C38.918,265.821 39.981,263.299 39.981,260.587 C39.981,257.573 38.878,255.08 36.703,253.177 C35.064,251.743 32.797,250.685 30.321,250.195 C27.848,249.708 25.188,247.989 25.188,245.367 C25.188,242.864 27.167,240.977 29.792,240.977 C32.417,240.977 34.396,242.864 34.396,245.367 C34.396,247.055 33.291,248.366 31.847,249.218 C33.999,249.817 35.953,250.817 37.462,252.107 C39.132,250.311 39.979,248.046 39.979,245.367 C39.979,242.656 38.918,240.134 36.991,238.265 C35.079,236.413 32.524,235.393 29.792,235.393 C27.06,235.393 24.505,236.413 22.593,238.265 C20.666,240.134 19.605,242.656 19.605,245.367 C19.605,248.205 20.554,250.578 22.427,252.421 C24.095,254.064 26.463,255.205 29.275,255.721 C31.82,256.188 34.396,258.009 34.396,260.587 C34.396,263.091 32.417,264.979 29.794,264.979 L29.79,264.979 C27.167,264.979 25.188,263.091 25.188,260.587 C25.188,258.925 26.261,257.581 27.703,256.707 C25.52,256.134 23.623,255.184 22.124,253.91 C20.45,255.705 19.603,257.947 19.603,260.587 C19.603,263.299 20.666,265.821 22.593,267.69 C24.503,269.542 27.06,270.562 29.79,270.562 L29.794,270.562 C32.524,270.562 35.081,269.542 36.991,267.69" id="Fill-7" stroke="none" fill="#FFFFF8" fill-rule="evenodd"></path>
                    <path d="M133.146,148.98 L266.785,148.98 L266.785,165.057 L133.146,165.057 L133.146,148.98 Z" id="Fill-8" stroke="none" fill="#FFFFF8" fill-rule="evenodd"></path>
                    <path d="M35.774,364.24 C35.774,364.24 439.941,364.74 465.774,364.24 C491.607,363.74 375.607,608.24 333.607,678.24 M392.608,366.24 C392.608,366.24 305.941,604.24 334.275,668.24" id="Stroke-9" stroke="#0A0B09" stroke-width="18" fill="none"></path>
                    <path d="M333.236,693.24 C345.11,693.24 354.736,683.615 354.736,671.74 C354.736,659.865 345.11,650.24 333.236,650.24 C321.362,650.24 311.736,659.865 311.736,671.74 C311.736,683.615 321.362,693.24 333.236,693.24" id="Fill-10" stroke="none" fill="#0A0B09" fill-rule="evenodd"></path>
                    <path d="M288.346,44.473 L288.286,47.332 L278.321,49.091 L278.245,46.262 L288.346,44.473" id="Fill-11" stroke="none" fill="#0A0B09" fill-rule="evenodd"></path>
                    <path d="M288.486,38.689 L288.417,41.549 L278.19,43.352 L278.119,40.527 L288.486,38.689" id="Fill-12" stroke="none" fill="#0A0B09" fill-rule="evenodd"></path>
                    <path d="M288.617,32.895 L288.547,35.749 L278.06,37.608 L277.99,34.768 L288.617,32.895" id="Fill-13" stroke="none" fill="#0A0B09" fill-rule="evenodd"></path>
                    <path d="M288.746,27.111 L288.677,29.951 L277.929,31.853 L277.859,29.029 L288.746,27.111" id="Fill-14" stroke="none" fill="#0A0B09" fill-rule="evenodd"></path>
                    <path d="M288.877,21.312 L288.807,24.166 L277.799,26.114 L277.73,23.29 L288.877,21.312" id="Fill-15" stroke="none" fill="#0A0B09" fill-rule="evenodd"></path>
                    <path d="M296.264,3.528 L289.053,13.625 L288.953,18.373 L277.675,20.36 L277.514,13.625 L270.303,3.528 C268.615,3.469 268.44,0.585 270.303,0.643 L296.264,0.643 C298.311,0.704 298.251,3.469 296.264,3.528" id="Fill-16" stroke="none" fill="#0A0B09" fill-rule="evenodd"></path>
                    <path d="M287.236,50.272 C287.105,51.223 286.917,52.22 286.7,53.217 L279.965,54.398 C279.734,53.491 279.528,52.566 279.359,51.673 L287.236,50.272" id="Fill-17" stroke="none" fill="#0A0B09" fill-rule="evenodd"></path>
                    <path d="M252.694,68.029 L252.634,70.888 L242.669,72.647 L242.593,69.818 L252.694,68.029" id="Fill-18" stroke="none" fill="#0A0B09" fill-rule="evenodd"></path>
                    <path d="M252.833,62.245 L252.765,65.105 L242.538,66.908 L242.467,64.083 L252.833,62.245" id="Fill-19" stroke="none" fill="#0A0B09" fill-rule="evenodd"></path>
                    <path d="M252.964,56.451 L252.894,59.305 L242.407,61.164 L242.337,58.324 L252.964,56.451" id="Fill-20" stroke="none" fill="#0A0B09" fill-rule="evenodd"></path>
                    <path d="M253.094,50.667 L253.025,53.507 L242.277,55.409 L242.207,52.585 L253.094,50.667" id="Fill-21" stroke="none" fill="#0A0B09" fill-rule="evenodd"></path>
                    <path d="M253.225,44.868 L253.155,47.722 L242.146,49.67 L242.078,46.846 L253.225,44.868" id="Fill-22" stroke="none" fill="#0A0B09" fill-rule="evenodd"></path>
                    <path d="M260.611,27.084 L253.401,37.181 L253.3,41.929 L242.022,43.916 L241.861,37.181 L234.651,27.084 C232.962,27.025 232.788,24.141 234.651,24.199 L260.611,24.199 C262.658,24.26 262.598,27.025 260.611,27.084" id="Fill-23" stroke="none" fill="#0A0B09" fill-rule="evenodd"></path>
                    <path d="M251.584,73.828 C251.453,74.779 251.264,75.776 251.048,76.773 L244.312,77.954 C244.082,77.047 243.876,76.122 243.706,75.229 L251.584,73.828" id="Fill-24" stroke="none" fill="#0A0B09" fill-rule="evenodd"></path>
                    <path d="M97.429,68.029 L97.369,70.888 L87.404,72.647 L87.328,69.818 L97.429,68.029" id="Fill-25" stroke="none" fill="#0A0B09" fill-rule="evenodd"></path>
                    <path d="M97.568,62.245 L97.499,65.105 L87.273,66.908 L87.201,64.083 L97.568,62.245" id="Fill-26" stroke="none" fill="#0A0B09" fill-rule="evenodd"></path>
                    <path d="M97.699,56.451 L97.629,59.305 L87.142,61.164 L87.072,58.324 L97.699,56.451" id="Fill-27" stroke="none" fill="#0A0B09" fill-rule="evenodd"></path>
                    <path d="M97.829,50.667 L97.76,53.507 L87.012,55.409 L86.942,52.585 L97.829,50.667" id="Fill-28" stroke="none" fill="#0A0B09" fill-rule="evenodd"></path>
                    <path d="M97.959,44.868 L97.89,47.722 L86.881,49.67 L86.813,46.846 L97.959,44.868" id="Fill-29" stroke="none" fill="#0A0B09" fill-rule="evenodd"></path>
                    <path d="M105.347,27.084 L98.136,37.181 L98.036,41.929 L86.758,43.916 L86.597,37.181 L79.386,27.084 C77.698,27.025 77.523,24.141 79.386,24.199 L105.347,24.199 C107.394,24.26 107.334,27.025 105.347,27.084" id="Fill-30" stroke="none" fill="#0A0B09" fill-rule="evenodd"></path>
                    <path d="M96.319,73.828 C96.188,74.779 95.999,75.776 95.783,76.773 L89.047,77.954 C88.817,77.047 88.611,76.122 88.441,75.229 L96.319,73.828" id="Fill-31" stroke="none" fill="#0A0B09" fill-rule="evenodd"></path>
                    <path d="M132.606,47.067 L132.546,49.926 L122.581,51.685 L122.505,48.856 L132.606,47.067" id="Fill-32" stroke="none" fill="#0A0B09" fill-rule="evenodd"></path>
                    <path d="M132.746,41.282 L132.677,44.142 L122.45,45.945 L122.379,43.12 L132.746,41.282" id="Fill-33" stroke="none" fill="#0A0B09" fill-rule="evenodd"></path>
                    <path d="M132.877,35.489 L132.807,38.343 L122.32,40.202 L122.25,37.362 L132.877,35.489" id="Fill-34" stroke="none" fill="#0A0B09" fill-rule="evenodd"></path>
                    <path d="M133.006,29.705 L132.938,32.545 L122.189,34.447 L122.119,31.623 L133.006,29.705" id="Fill-35" stroke="none" fill="#0A0B09" fill-rule="evenodd"></path>
                    <path d="M133.137,23.906 L133.067,26.76 L122.059,28.708 L121.99,25.884 L133.137,23.906" id="Fill-36" stroke="none" fill="#0A0B09" fill-rule="evenodd"></path>
                    <path d="M140.524,6.122 L133.313,16.219 L133.213,20.967 L121.935,22.954 L121.774,16.219 L114.563,6.122 C112.875,6.063 112.7,3.179 114.563,3.237 L140.524,3.237 C142.571,3.298 142.511,6.063 140.524,6.122" id="Fill-37" stroke="none" fill="#0A0B09" fill-rule="evenodd"></path>
                    <path d="M131.497,52.865 C131.366,53.816 131.177,54.813 130.961,55.81 L124.225,56.991 C123.995,56.084 123.789,55.159 123.619,54.266 L131.497,52.865" id="Fill-38" stroke="none" fill="#0A0B09" fill-rule="evenodd"></path>
                    <path d="M87.024,506.629 C89.444,504.21 93.367,504.21 95.786,506.629 C98.206,509.049 98.206,512.972 95.786,515.392 C93.366,517.811 89.444,517.811 87.024,515.392 C84.604,512.972 84.604,509.049 87.024,506.629 M106.315,494.781 L131.307,469.79 C131.87,469.227 132.791,469.227 133.355,469.79 C133.918,470.353 133.918,471.275 133.355,471.838 L108.363,496.829 C107.8,497.393 106.878,497.393 106.315,496.829 C105.752,496.266 105.752,495.345 106.315,494.781 M143.846,449.807 C146.266,447.387 150.189,447.387 152.609,449.807 C155.028,452.227 155.028,456.15 152.609,458.569 C150.189,460.989 146.266,460.989 143.846,458.569 C141.427,456.15 141.427,452.227 143.846,449.807 M90.104,532.592 L170.324,452.372 C170.324,452.372 180.505,442.186 170.421,431.964 C169.197,430.824 159.622,422.514 150.044,432.092 L69.824,512.312 C69.824,512.312 59.643,522.499 69.727,532.72 C70.951,533.86 80.526,542.17 90.104,532.592" id="Fill-39" stroke="none" fill="#0A0B09" fill-rule="evenodd"></path>
                    <path d="M170.324,431.86 C170.359,431.895 170.387,431.929 170.422,431.964 C170.508,432.045 170.556,432.092 170.556,432.092 L170.324,431.86" id="Fill-40" stroke="none" fill="#0A0B09" fill-rule="evenodd"></path>
                    <path d="M240.382,502.909 C242.802,500.49 246.725,500.49 249.144,502.909 C251.564,505.329 251.564,509.252 249.144,511.672 C246.724,514.091 242.802,514.091 240.382,511.672 C237.962,509.252 237.962,505.329 240.382,502.909 M259.673,491.061 L284.665,466.07 C285.228,465.507 286.149,465.507 286.713,466.07 C287.276,466.633 287.276,467.555 286.713,468.118 L261.721,493.109 C261.158,493.673 260.236,493.673 259.673,493.109 C259.11,492.546 259.11,491.625 259.673,491.061 M297.204,446.087 C299.624,443.667 303.547,443.667 305.967,446.087 C308.386,448.507 308.386,452.43 305.967,454.849 C303.547,457.269 299.624,457.269 297.204,454.849 C294.785,452.43 294.785,448.507 297.204,446.087 M243.462,528.872 L323.682,448.652 C323.682,448.652 333.863,438.466 323.779,428.244 C322.555,427.104 312.98,418.794 303.402,428.372 L223.182,508.592 C223.182,508.592 213.001,518.779 223.085,529 C224.309,530.14 233.884,538.45 243.462,528.872" id="Fill-41" stroke="none" fill="#0A0B09" fill-rule="evenodd"></path>
                    <path d="M323.682,428.14 C323.717,428.175 323.745,428.209 323.78,428.244 C323.866,428.325 323.914,428.372 323.914,428.372 L323.682,428.14" id="Fill-42" stroke="none" fill="#0A0B09" fill-rule="evenodd"></path>
                </g>
            </g>
            <circle id="Oval-1" fill="#0B0B0A" sketch:type="MSShapeGroup" cx="107.5" cy="96.5" r="2.5"></circle>
            <circle id="Oval-1-Copy-10" fill="#0B0B0A" sketch:type="MSShapeGroup" cx="262.5" cy="96.5" r="2.5"></circle>
            <circle id="Oval-1-Copy" fill="#0B0B0A" sketch:type="MSShapeGroup" cx="107.5" cy="104.5" r="2.5"></circle>
            <circle id="Oval-1-Copy-11" fill="#0B0B0A" sketch:type="MSShapeGroup" cx="262.5" cy="104.5" r="2.5"></circle>
            <circle id="Oval-1-Copy-4" fill="#0B0B0A" sketch:type="MSShapeGroup" cx="142.5" cy="104.5" r="2.5"></circle>
            <circle id="Oval-1-Copy-20" fill="#0B0B0A" sketch:type="MSShapeGroup" cx="142.5" cy="419.5" r="2.5"></circle>
            <circle id="Oval-1-Copy-30" fill="#0B0B0A" sketch:type="MSShapeGroup" cx="300.5" cy="419.5" r="2.5"></circle>
            <circle id="Oval-1-Copy-26" fill="#0B0B0A" sketch:type="MSShapeGroup" cx="100.5" cy="419.5" r="2.5"></circle>
            <circle id="Oval-1-Copy-38" fill="#0B0B0A" sketch:type="MSShapeGroup" cx="258" cy="419.5" r="2.5"></circle>
            <circle id="Oval-1-Copy-32" fill="#0B0B0A" sketch:type="MSShapeGroup" cx="100.5" cy="458.5" r="2.5"></circle>
            <circle id="Oval-1-Copy-39" fill="#0B0B0A" sketch:type="MSShapeGroup" cx="258" cy="458.5" r="2.5"></circle>
            <circle id="Oval-1-Copy-12" fill="#0B0B0A" sketch:type="MSShapeGroup" cx="298.5" cy="104.5" r="2.5"></circle>
            <circle id="Oval-1-Copy-7" fill="#0B0B0A" sketch:type="MSShapeGroup" cx="142.5" cy="80.5" r="2.5"></circle>
            <circle id="Oval-1-Copy-21" fill="#0B0B0A" sketch:type="MSShapeGroup" cx="142.5" cy="395.5" r="2.5"></circle>
            <circle id="Oval-1-Copy-40" fill="#0B0B0A" sketch:type="MSShapeGroup" cx="300" cy="395.5" r="2.5"></circle>
            <circle id="Oval-1-Copy-27" fill="#0B0B0A" sketch:type="MSShapeGroup" cx="100.5" cy="395.5" r="2.5"></circle>
            <circle id="Oval-1-Copy-41" fill="#0B0B0A" sketch:type="MSShapeGroup" cx="258" cy="395.5" r="2.5"></circle>
            <circle id="Oval-1-Copy-33" fill="#0B0B0A" sketch:type="MSShapeGroup" cx="100.5" cy="435.5" r="2.5"></circle>
            <circle id="Oval-1-Copy-42" fill="#0B0B0A" sketch:type="MSShapeGroup" cx="258" cy="435.5" r="2.5"></circle>
            <circle id="Oval-1-Copy-13" fill="#0B0B0A" sketch:type="MSShapeGroup" cx="298.5" cy="80.5" r="2.5"></circle>
            <circle id="Oval-1-Copy-2" fill="#0B0B0A" sketch:type="MSShapeGroup" cx="107.5" cy="112.5" r="2.5"></circle>
            <circle id="Oval-1-Copy-14" fill="#0B0B0A" sketch:type="MSShapeGroup" cx="262.5" cy="112.5" r="2.5"></circle>
            <circle id="Oval-1-Copy-5" fill="#0B0B0A" sketch:type="MSShapeGroup" cx="142.5" cy="112.5" r="2.5"></circle>
            <circle id="Oval-1-Copy-22" fill="#0B0B0A" sketch:type="MSShapeGroup" cx="142.5" cy="427.5" r="2.5"></circle>
            <circle id="Oval-1-Copy-43" fill="#0B0B0A" sketch:type="MSShapeGroup" cx="300" cy="427.5" r="2.5"></circle>
            <circle id="Oval-1-Copy-28" fill="#0B0B0A" sketch:type="MSShapeGroup" cx="100.5" cy="427.5" r="2.5"></circle>
            <circle id="Oval-1-Copy-44" fill="#0B0B0A" sketch:type="MSShapeGroup" cx="258" cy="427.5" r="2.5"></circle>
            <circle id="Oval-1-Copy-34" fill="#0B0B0A" sketch:type="MSShapeGroup" cx="100.5" cy="467.5" r="2.5"></circle>
            <circle id="Oval-1-Copy-45" fill="#0B0B0A" sketch:type="MSShapeGroup" cx="258" cy="467.5" r="2.5"></circle>
            <circle id="Oval-1-Copy-15" fill="#0B0B0A" sketch:type="MSShapeGroup" cx="298.5" cy="112.5" r="2.5"></circle>
            <circle id="Oval-1-Copy-8" fill="#0B0B0A" sketch:type="MSShapeGroup" cx="142.5" cy="88.5" r="2.5"></circle>
            <circle id="Oval-1-Copy-23" fill="#0B0B0A" sketch:type="MSShapeGroup" cx="142.5" cy="403.5" r="2.5"></circle>
            <circle id="Oval-1-Copy-46" fill="#0B0B0A" sketch:type="MSShapeGroup" cx="300" cy="403.5" r="2.5"></circle>
            <circle id="Oval-1-Copy-29" fill="#0B0B0A" sketch:type="MSShapeGroup" cx="100.5" cy="403.5" r="2.5"></circle>
            <circle id="Oval-1-Copy-47" fill="#0B0B0A" sketch:type="MSShapeGroup" cx="258" cy="403.5" r="2.5"></circle>
            <circle id="Oval-1-Copy-35" fill="#0B0B0A" sketch:type="MSShapeGroup" cx="100.5" cy="443.5" r="2.5"></circle>
            <circle id="Oval-1-Copy-48" fill="#0B0B0A" sketch:type="MSShapeGroup" cx="258" cy="443.5" r="2.5"></circle>
            <circle id="Oval-1-Copy-16" fill="#0B0B0A" sketch:type="MSShapeGroup" cx="298.5" cy="88.5" r="2.5"></circle>
            <circle id="Oval-1-Copy-3" fill="#0B0B0A" sketch:type="MSShapeGroup" cx="107.5" cy="120.5" r="2.5"></circle>
            <circle id="Oval-1-Copy-17" fill="#0B0B0A" sketch:type="MSShapeGroup" cx="262.5" cy="120.5" r="2.5"></circle>
            <circle id="Oval-1-Copy-6" fill="#0B0B0A" sketch:type="MSShapeGroup" cx="142.5" cy="120.5" r="2.5"></circle>
            <circle id="Oval-1-Copy-24" fill="#0B0B0A" sketch:type="MSShapeGroup" cx="142.5" cy="435.5" r="2.5"></circle>
            <circle id="Oval-1-Copy-49" fill="#0B0B0A" sketch:type="MSShapeGroup" cx="300" cy="435.5" r="2.5"></circle>
            <circle id="Oval-1-Copy-36" fill="#0B0B0A" sketch:type="MSShapeGroup" cx="100.5" cy="475.5" r="2.5"></circle>
            <circle id="Oval-1-Copy-50" fill="#0B0B0A" sketch:type="MSShapeGroup" cx="258" cy="475.5" r="2.5"></circle>
            <circle id="Oval-1-Copy-18" fill="#0B0B0A" sketch:type="MSShapeGroup" cx="298.5" cy="120.5" r="2.5"></circle>
            <circle id="Oval-1-Copy-9" fill="#0B0B0A" sketch:type="MSShapeGroup" cx="142.5" cy="96.5" r="2.5"></circle>
            <circle id="Oval-1-Copy-25" fill="#0B0B0A" sketch:type="MSShapeGroup" cx="142.5" cy="411.5" r="2.5"></circle>
            <circle id="Oval-1-Copy-51" fill="#0B0B0A" sketch:type="MSShapeGroup" cx="300" cy="411.5" r="2.5"></circle>
            <circle id="Oval-1-Copy-31" fill="#0B0B0A" sketch:type="MSShapeGroup" cx="100.5" cy="411.5" r="2.5"></circle>
            <circle id="Oval-1-Copy-52" fill="#0B0B0A" sketch:type="MSShapeGroup" cx="258" cy="411.5" r="2.5"></circle>
            <circle id="Oval-1-Copy-37" fill="#0B0B0A" sketch:type="MSShapeGroup" cx="100.5" cy="451.5" r="2.5"></circle>
            <circle id="Oval-1-Copy-53" fill="#0B0B0A" sketch:type="MSShapeGroup" cx="258" cy="451.5" r="2.5"></circle>
            <circle id="Oval-1-Copy-19" fill="#0B0B0A" sketch:type="MSShapeGroup" cx="298.5" cy="96.5" r="2.5"></circle>
        </g>
    </g>
</svg>
