<?xml version="1.0" encoding="UTF-8" standalone="no"?>
<svg viewBox="0 0 150 110" version="1.1" xmlns="http://www.w3.org/2000/svg" xmlns:xlink="http://www.w3.org/1999/xlink" xmlns:sketch="http://www.bohemiancoding.com/sketch/ns">
    <!-- Generator: Sketch 3.3.3 (12072) - http://www.bohemiancoding.com/sketch -->
    <title>Brackets</title>
    <desc>Created with Sketch.</desc>
    <defs></defs>
    <g id="Page-1" stroke="none" stroke-width="1" fill="none" fill-rule="evenodd" sketch:type="MSPage">
        <g id="Brackets" sketch:type="MSArtboardGroup" fill="#0A0B09">
            <g id="Imported-Layers" sketch:type="MSLayerGroup" transform="translate(4.000000, 20.000000)">
                <path d="M128.251,0.594 L14.803,0.594 C14.803,0.594 0.401,0.599 0.304,14.956 C0.363,16.628 1.258,29.274 14.803,29.274 L128.251,29.274 C128.251,29.274 142.653,29.27 142.751,14.913 C142.691,13.241 141.797,0.594 128.251,0.594 L128.251,0.594 Z M31.712,21.131 C28.29,21.131 25.516,18.357 25.516,14.935 C25.516,11.513 28.29,8.739 31.712,8.739 C35.134,8.739 37.908,11.513 37.908,14.935 C37.908,18.357 35.134,21.131 31.712,21.131 L31.712,21.131 Z M90.052,15.868 L54.709,15.868 C53.912,15.868 53.26,15.216 53.26,14.419 C53.26,13.623 53.912,12.971 54.709,12.971 L90.052,12.971 C90.848,12.971 91.5,13.623 91.5,14.419 C91.5,15.216 90.848,15.868 90.052,15.868 L90.052,15.868 Z M112.071,21.131 C108.649,21.131 105.875,18.357 105.875,14.935 C105.875,11.513 108.649,8.739 112.071,8.739 C115.493,8.739 118.266,11.513 118.266,14.935 C118.266,18.357 115.493,21.131 112.071,21.131 L112.071,21.131 Z" id="Fill-1" sketch:type="MSShapeGroup"></path>
                <path d="M0.299,15.099 C0.299,15.049 0.303,15.005 0.304,14.956 C0.299,14.838 0.299,14.771 0.299,14.771 L0.299,15.099" id="Fill-2" sketch:type="MSShapeGroup"></path>
                <path d="M142.755,14.771 C142.755,14.82 142.751,14.864 142.751,14.913 C142.755,15.031 142.755,15.099 142.755,15.099 L142.755,14.771" id="Fill-3" sketch:type="MSShapeGroup"></path>
                <path d="M128.251,41.474 L14.803,41.474 C14.803,41.474 0.401,41.478 0.304,55.835 C0.363,57.507 1.258,70.154 14.803,70.154 L128.251,70.154 C128.251,70.154 142.653,70.15 142.751,55.792 C142.691,54.12 141.797,41.474 128.251,41.474 L128.251,41.474 Z M31.712,62.01 C28.29,62.01 25.516,59.236 25.516,55.814 C25.516,52.392 28.29,49.618 31.712,49.618 C35.134,49.618 37.908,52.392 37.908,55.814 C37.908,59.236 35.134,62.01 31.712,62.01 L31.712,62.01 Z M90.052,56.747 L54.709,56.747 C53.912,56.747 53.26,56.095 53.26,55.299 C53.26,54.502 53.912,53.85 54.709,53.85 L90.052,53.85 C90.848,53.85 91.5,54.502 91.5,55.299 C91.5,56.095 90.848,56.747 90.052,56.747 L90.052,56.747 Z M112.071,62.01 C108.649,62.01 105.875,59.236 105.875,55.814 C105.875,52.392 108.649,49.618 112.071,49.618 C115.493,49.618 118.266,52.392 118.266,55.814 C118.266,59.236 115.493,62.01 112.071,62.01 L112.071,62.01 Z" id="Fill-4" sketch:type="MSShapeGroup"></path>
                <path d="M0.299,55.978 C0.299,55.929 0.303,55.884 0.304,55.835 C0.299,55.717 0.299,55.65 0.299,55.65 L0.299,55.978" id="Fill-5" sketch:type="MSShapeGroup"></path>
                <path d="M142.755,55.65 C142.755,55.699 142.751,55.744 142.751,55.792 C142.755,55.911 142.755,55.978 142.755,55.978 L142.755,55.65" id="Fill-6" sketch:type="MSShapeGroup"></path>
            </g>
        </g>
    </g>
</svg>
