<?xml version="1.0" encoding="UTF-8" standalone="no"?>
<svg width="182px" height="102px" viewBox="0 0 182 102" version="1.1" xmlns="http://www.w3.org/2000/svg" xmlns:xlink="http://www.w3.org/1999/xlink" xmlns:sketch="http://www.bohemiancoding.com/sketch/ns">
    <!-- Generator: Sketch 3.3.3 (12072) - http://www.bohemiancoding.com/sketch -->
    <title>Artboard 1</title>
    <desc>Created with Sketch.</desc>
    <defs>
        <path id="path-1" d="M0.682,150.846 L185.319,150.846 L185.319,0.766 L0.682,0.766 L0.682,150.846 Z"></path>
        <path id="path-3" d="M0.582,47.465 C0.582,73.356 21.571,94.344 47.461,94.344 C73.353,94.344 94.341,73.356 94.341,47.465 C94.341,21.573 73.353,0.585 47.461,0.585 C21.571,0.585 0.582,21.573 0.582,47.465 L0.582,47.465 Z"></path>
    </defs>
    <g id="Page-1" stroke="none" stroke-width="1" fill="none" fill-rule="evenodd" sketch:type="MSPage">
        <g id="Artboard-1" sketch:type="MSArtboardGroup">
            <g id="Imported-Layers" sketch:type="MSLayerGroup" transform="translate(4.000000, -51.000000)">
                <g id="Group-3">
                    <mask id="mask-2" sketch:name="Clip 2" fill="white">
                        <use xlink:href="#path-1"></use>
                    </mask>
                    <g id="Clip-2"></g>
                    <path d="M29.52,83.588 C29.52,84.467 28.643,84.467 28.643,84.467 L7.288,84.467 C6.411,84.467 6.411,83.588 6.411,83.588 L6.411,81.561 C6.411,81.561 6.411,80.682 7.266,80.487 L17.016,78.256 C17.016,78.256 17.352,78.19 17.797,78.178 C17.858,78.174 17.908,78.174 17.966,78.174 C18.023,78.174 18.073,78.174 18.134,78.178 C18.579,78.19 18.915,78.256 18.915,78.256 L28.665,80.487 C29.52,80.682 29.52,81.561 29.52,81.561 L29.52,83.588 L29.52,83.588 Z M16.391,136.319 L16.784,113.209 L18.051,113.209 L17.658,136.338 L16.391,136.319 L16.391,136.319 Z M30.741,75.557 L23.265,73.702 C23.265,73.702 21.177,73.186 18.341,73.147 C18.214,73.143 18.091,73.147 17.966,73.147 C17.841,73.147 17.717,73.143 17.59,73.147 C14.754,73.186 12.667,73.702 12.667,73.702 L5.19,75.557 C0.081,76.823 0.705,82.049 0.705,82.049 L2.965,100.963 C3.59,106.19 6.494,106.19 6.494,106.19 L8.524,106.19 C8.524,106.19 9.394,106.19 9.61,107.034 L10.515,110.655 C10.515,110.655 10.579,110.877 10.718,111.182 C10.924,111.666 11.2,112.041 11.518,112.319 L11.453,139.135 C11.453,139.135 13.211,143.03 16.946,142.889 C21.681,142.745 22.934,139.412 22.934,139.412 L22.934,135.467 L24.741,133.194 L23.552,131.588 L24.629,130.233 L23.113,128.186 L23.161,125.295 L24.31,123.85 L23.208,122.358 L23.246,120.006 L24.744,118.12 L23.978,117.088 L24.778,116.08 L23.343,114.143 L23.362,112.952 C24.143,112.662 25.07,112.041 25.416,110.655 L26.532,106.19 L29.437,106.19 C29.437,106.19 32.341,106.19 32.966,100.963 L35.226,82.049 C35.226,82.049 35.85,76.823 30.741,75.557 L30.741,75.557 Z" id="Fill-1" fill="#1A1C27" sketch:type="MSShapeGroup" mask="url(#mask-2)"></path>
                </g>
                <path d="M29.159,76.424 L22.609,74.802 C22.609,74.802 20.78,74.352 18.295,74.316 C18.184,74.314 18.076,74.315 17.966,74.315 C17.857,74.315 17.749,74.314 17.637,74.316 C15.152,74.352 13.323,74.802 13.323,74.802 L6.773,76.424 C2.296,77.533 2.844,82.11 2.844,82.11 L4.824,98.668 C5.371,103.246 7.916,103.246 7.916,103.246 L10.512,103.246 C10.512,103.246 11.494,104.074 11.616,104.34 C11.797,104.766 12.457,106.113 14.304,106.113 L21.628,106.113 C21.628,106.113 23.934,106.113 24.494,103.877 L25.472,103.246 L28.016,103.246 C28.016,103.246 30.561,103.246 31.108,98.668 L33.089,82.11 C33.089,82.11 33.636,77.533 29.159,76.424 L29.159,76.424 Z" id="Stroke-4" stroke="#FFFFF8" stroke-width="0.5" sketch:type="MSShapeGroup"></path>
                <g id="Group-7" transform="translate(79.000000, 55.000000)">
                    <mask id="mask-4" sketch:name="Clip 6" fill="white">
                        <use xlink:href="#path-3"></use>
                    </mask>
                    <g id="Clip-6"></g>
                    <path d="M83.308,-25.986 C83.308,-23.381 80.699,-23.381 80.699,-23.381 L17.224,-23.381 C14.616,-23.381 14.616,-25.986 14.616,-25.986 L14.616,-32.013 C14.616,-32.013 14.616,-34.619 17.158,-35.201 L46.139,-41.842 C46.139,-41.842 47.138,-42.037 48.462,-42.072 C48.641,-42.08 48.79,-42.076 48.962,-42.08 C49.133,-42.076 49.282,-42.08 49.462,-42.072 C50.785,-42.037 51.784,-41.842 51.784,-41.842 L80.765,-35.201 C83.308,-34.619 83.308,-32.013 83.308,-32.013 L83.308,-25.986 L83.308,-25.986 Z M44.282,130.752 L45.449,65.78 L49.215,65.78 L48.046,130.815 L44.282,130.752 L44.282,130.752 Z M86.936,-49.865 L64.713,-55.373 C64.713,-55.373 58.508,-56.904 50.078,-57.021 C49.699,-57.029 49.333,-57.029 48.962,-57.029 C48.59,-57.029 48.224,-57.029 47.845,-57.021 C39.415,-56.904 33.21,-55.373 33.21,-55.373 L10.987,-49.865 C-4.201,-46.099 -2.344,-30.564 -2.344,-30.564 L4.374,25.658 C6.231,41.194 14.864,41.194 14.864,41.194 L20.896,41.194 C20.896,41.194 23.482,41.201 24.124,43.705 C24.124,43.705 26.642,61.467 29.795,63.135 L28.712,127.24 L45.931,151.467 L63.73,128.061 L63.729,128.221 L69.1,121.463 L65.568,116.686 L68.768,112.658 L64.262,106.584 L64.406,97.987 L67.82,93.686 L64.544,89.256 L64.658,82.26 L69.11,76.658 L66.833,73.588 L69.211,70.6 L64.944,64.834 L65.001,65.014 C67.324,64.155 70.078,58.584 71.107,54.467 L74.426,41.194 L83.059,41.194 C83.059,41.194 91.692,41.194 93.549,25.658 L100.267,-30.564 C100.267,-30.564 102.124,-46.099 86.936,-49.865 L86.936,-49.865 Z" id="Fill-5" fill="#1A1C27" sketch:type="MSShapeGroup" mask="url(#mask-4)"></path>
                </g>
                <path d="M126.461,149.344 C152.353,149.344 173.341,128.356 173.341,102.465 C173.341,76.573 152.353,55.584 126.461,55.584 C100.571,55.584 79.582,76.573 79.582,102.465 C79.582,128.356 100.571,149.344 126.461,149.344 L126.461,149.344 Z" id="Stroke-8" stroke="#27B4C5" stroke-width="3" sketch:type="MSShapeGroup"></path>
                <path d="M161.253,8.155 L141.408,3.243 C141.408,3.243 135.866,1.88 128.339,1.772 C128.001,1.766 127.673,1.768 127.342,1.768 C127.01,1.768 126.683,1.766 126.345,1.772 C118.816,1.88 113.276,3.243 113.276,3.243 L93.431,8.155 C79.868,11.51 81.526,25.364 81.526,25.364 L87.526,75.489 C89.184,89.341 96.893,89.341 96.893,89.341 L104.76,89.341 C104.76,89.341 107.733,91.848 108.104,92.653 C108.652,93.942 110.651,98.022 116.248,98.022 L138.436,98.022 C138.436,98.022 145.422,98.022 147.118,91.255 L150.082,89.341 L157.791,89.341 C157.791,89.341 165.5,89.341 167.158,75.489 L173.158,25.364 C173.158,25.364 174.816,11.51 161.253,8.155 L161.253,8.155 Z" id="Stroke-10" stroke="#FFFFF8" stroke-width="2" sketch:type="MSShapeGroup"></path>
                <path d="M79.682,107.646 L31.682,107.646" id="Stroke-12" stroke="#27B4C5" stroke-width="3" sketch:type="MSShapeGroup"></path>
                <path d="M17.182,122.146 C25.19,122.146 31.682,115.654 31.682,107.646 C31.682,99.638 25.19,93.146 17.182,93.146 C9.174,93.146 2.682,99.638 2.682,107.646 C2.682,115.654 9.174,122.146 17.182,122.146 L17.182,122.146 Z" id="Stroke-13" stroke="#27B4C5" stroke-width="3" sketch:type="MSShapeGroup"></path>
                <path d="M119.335187,112.860813 L119.335187,111.357779 L118.283064,111.357779 L118.283064,104.767553 L117.022827,104.767553 L115.24231,105.623127 L115.866647,106.964295 L116.641288,106.559632 L116.641288,111.357779 L115.600726,111.357779 L115.600726,112.860813 L119.335187,112.860813 Z M125.807172,112.860813 L125.807172,111.288409 L123.621992,111.288409 C123.413879,111.288409 123.263576,111.29997 123.15952,111.311532 C124.338823,110.317217 125.737801,108.825745 125.737801,107.114599 C125.737801,105.507509 124.63943,104.651935 123.205767,104.651935 C121.725856,104.651935 120.558115,105.704059 120.558115,107.276464 C120.558115,107.970172 120.824036,108.467329 120.824036,108.467329 L122.361755,108.004857 C122.049587,107.103037 122.280823,106.178093 123.15952,106.178093 C123.656677,106.178093 124.049778,106.594318 124.049778,107.241779 C124.049778,109.195723 120.442497,111.542768 120.442497,111.542768 L120.442497,112.860813 L125.807172,112.860813 Z M129.330897,112.976431 C130.972673,112.976431 132.105729,111.901184 132.105729,110.351903 C132.105729,109.611948 131.758875,108.710127 130.752999,108.386397 C131.354212,107.993296 131.585448,107.38052 131.585448,106.709936 C131.585448,105.345643 130.463954,104.640374 129.330897,104.640374 C128.174717,104.640374 126.995414,105.391891 126.995414,106.952734 L128.602504,106.952734 C128.602504,106.444014 128.903111,106.143408 129.28465,106.143408 C129.666189,106.143408 129.978358,106.467138 129.978358,106.918048 C129.978358,107.600194 129.458077,107.912363 128.879987,107.912363 L128.879987,109.184161 L129.122785,109.184161 C129.943673,109.184161 130.44083,109.635071 130.44083,110.317217 C130.44083,110.999364 129.98992,111.519645 129.249965,111.519645 C128.486886,111.519645 128.059099,111.022487 127.920358,110.629386 L126.544503,111.276847 C126.694807,111.970555 127.55038,112.976431 129.330897,112.976431 L129.330897,112.976431 Z M137.78573,112.860813 L137.78573,111.184352 L138.768483,111.184352 L138.768483,109.762251 L137.78573,109.762251 L137.78573,104.767553 L136.433,104.767553 L133.010707,109.935678 L133.010707,111.184352 L136.132393,111.184352 L136.132393,112.860813 L137.78573,112.860813 Z M134.710292,109.762251 L136.132393,107.646442 L136.132393,109.762251 L134.710292,109.762251 Z" id="1234" fill="#FFFFF8" sketch:type="MSShapeGroup"></path>
            </g>
            <path id="Path-14" stroke="#979797" sketch:type="MSShapeGroup" d=""></path>
        </g>
    </g>
</svg>