<?xml version="1.0" encoding="UTF-8" standalone="no"?>
<svg class="nav__logo-icon" viewBox="0 0 185 27" version="1.1" xmlns="http://www.w3.org/2000/svg" xmlns:xlink="http://www.w3.org/1999/xlink" xmlns:sketch="http://www.bohemiancoding.com/sketch/ns">
    <!-- Generator: Sketch 3.3.3 (12072) - http://www.bohemiancoding.com/sketch -->
    <title>Wordmark Header</title>
    <desc>Created with Sketch.</desc>
    <defs></defs>
    <g id="Page-1" stroke="none" stroke-width="1" fill="none" fill-rule="evenodd" sketch:type="MSPage">
        <g id="Wordmark-Header" sketch:type="MSArtboardGroup" fill="#171B21">
            <g id="Imported-Layers" sketch:type="MSLayerGroup" transform="translate(-1.000000, 0.000000)">
                <path d="M35.53,0.512 L35.53,16.2 C35.53,17.99 34.568,19.792 32.415,19.792 C30.264,19.792 29.302,17.99 29.302,16.2 L29.302,0.512 L22.949,0.512 L22.949,16.087 C22.949,22.606 26.223,26.051 32.415,26.051 C38.608,26.051 41.882,22.606 41.882,16.087 L41.882,0.512 L35.53,0.512" id="Fill-1" sketch:type="MSShapeGroup"></path>
                <path d="M62.523,17.135 C61.282,18.806 59.385,19.766 57.315,19.766 C53.738,19.766 50.829,16.854 50.829,13.278 C50.829,9.702 53.738,6.792 57.315,6.792 C59.384,6.792 61.282,7.749 62.523,9.423 L62.643,9.584 L67.698,5.842 L67.577,5.678 C65.175,2.442 61.339,0.509 57.315,0.509 C50.274,0.509 44.545,6.236 44.545,13.278 C44.545,20.319 50.274,26.049 57.315,26.049 C61.34,26.049 65.175,24.116 67.577,20.879 L67.698,20.716 L62.643,16.972 L62.523,17.135" id="Fill-2" sketch:type="MSShapeGroup"></path>
                <path d="M77.101,10.352 C77.101,8.324 78.236,7.163 80.216,7.163 C82.195,7.163 83.33,8.324 83.33,10.352 L83.33,13.8 L77.101,13.8 L77.101,10.352 L77.101,10.352 Z M80.216,0.504 C74.023,0.504 70.75,3.949 70.75,10.465 L70.75,26.051 L77.101,26.051 L77.101,20.085 L83.33,20.085 L83.33,26.051 L89.681,26.051 L89.681,10.465 C89.681,3.949 86.408,0.504 80.216,0.504 L80.216,0.504 Z" id="Fill-3" sketch:type="MSShapeGroup"></path>
                <path d="M11.378,10.139 L6.85,10.139 L6.85,6.329 L11.378,6.329 C12.431,6.329 13.284,7.184 13.284,8.236 C13.284,9.287 12.431,10.139 11.378,10.139 M11.378,20.233 L6.85,20.233 L6.85,16.419 L11.378,16.419 C12.431,16.419 13.284,17.273 13.284,18.326 C13.284,19.379 12.431,20.233 11.378,20.233 M17.182,13.28 C18.681,11.938 19.632,9.996 19.632,7.832 C19.632,3.796 16.348,0.512 12.311,0.512 L0.7,0.512 L0.7,26.051 L12.311,26.051 C16.348,26.051 19.632,22.767 19.632,18.731 C19.632,16.565 18.681,14.62 17.182,13.28" id="Fill-4" sketch:type="MSShapeGroup"></path>
                <path d="M167.973,0.512 L167.973,7.076 L173.212,7.076 L173.212,26.051 L180.738,26.051 L180.738,7.076 L185.977,7.076 L185.977,0.512 L167.973,0.512" id="Fill-5" sketch:type="MSShapeGroup"></path>
                <path d="M112.043,10.139 L107.515,10.139 L107.515,6.329 L112.043,6.329 C113.096,6.329 113.949,7.184 113.949,8.236 C113.949,9.287 113.096,10.139 112.043,10.139 M112.043,20.233 L107.515,20.233 L107.515,16.419 L112.043,16.419 C113.096,16.419 113.949,17.273 113.949,18.326 C113.949,19.379 113.096,20.233 112.043,20.233 M117.847,13.28 C119.347,11.938 120.296,9.996 120.296,7.832 C120.296,3.796 117.013,0.512 112.976,0.512 L101.366,0.512 L101.366,26.051 L112.976,26.051 C117.013,26.051 120.296,22.767 120.296,18.731 C120.296,16.565 119.347,14.62 117.847,13.28" id="Fill-6" sketch:type="MSShapeGroup"></path>
                <path d="M165.108,13.283 C165.108,19.694 160.202,24.717 153.94,24.717 C149.763,24.717 147.034,22.835 145.262,20.576 C145.571,20.111 145.856,19.621 146.12,19.106 C147.822,21.463 150.388,23.224 153.94,23.224 C159.365,23.224 163.615,18.857 163.615,13.283 L165.108,13.283 L165.108,13.283 Z M147.436,15.668 C148.693,18.289 150.983,20.392 153.94,20.392 C157.778,20.392 160.784,17.271 160.784,13.283 L162.277,13.283 C162.277,18.108 158.615,21.885 153.94,21.885 C150.597,21.885 148.25,20.043 146.775,17.678 C147.03,17.04 147.245,16.364 147.436,15.668 L147.436,15.668 Z M153.94,7.508 C157.08,7.508 159.446,9.991 159.446,13.28 L159.446,13.283 C159.446,16.575 157.08,19.055 153.94,19.055 C150.927,19.055 148.74,16.248 147.983,13.283 C148.74,10.315 150.927,7.508 153.94,7.508 L153.94,7.508 Z M142.71,7.491 C142.41,7.066 142.09,6.664 141.743,6.297 C139.916,4.362 137.536,3.342 134.861,3.342 C129.436,3.342 125.186,7.709 125.186,13.283 L123.694,13.283 C123.694,6.872 128.599,1.849 134.861,1.849 C138.535,1.849 141.534,3.296 143.624,5.968 C143.297,6.448 142.991,6.955 142.71,7.491 L142.71,7.491 Z M141.33,10.941 C140.912,10.049 140.392,9.237 139.788,8.551 C138.416,6.996 136.711,6.171 134.861,6.171 C131.023,6.171 128.017,9.295 128.017,13.283 L126.525,13.283 C126.525,8.458 130.186,4.679 134.861,4.679 C138.241,4.679 140.58,6.503 142.042,8.913 C141.77,9.566 141.532,10.245 141.33,10.941 L141.33,10.941 Z M134.861,19.055 C131.723,19.055 129.355,16.572 129.355,13.283 C129.355,9.991 131.723,7.511 134.861,7.511 C137.912,7.511 139.987,10.388 140.757,13.283 C139.987,16.175 137.912,19.055 134.861,19.055 L134.861,19.055 Z M166.445,13.283 L166.445,13.28 C166.445,9.858 165.167,6.651 162.846,4.259 C160.503,1.841 157.34,0.51 153.94,0.51 C150.162,0.51 147.036,1.892 144.651,4.618 C144.58,4.701 144.515,4.789 144.445,4.872 C144.208,4.583 143.961,4.309 143.704,4.048 C141.393,1.701 138.417,0.51 134.861,0.51 C131.461,0.51 128.299,1.841 125.955,4.259 C123.635,6.651 122.356,9.858 122.356,13.283 C122.356,16.706 123.635,19.912 125.955,22.305 C128.299,24.722 131.461,26.054 134.861,26.054 C138.417,26.054 141.393,24.863 143.704,22.516 C143.961,22.254 144.208,21.98 144.445,21.691 C144.515,21.777 144.58,21.865 144.651,21.945 C147.036,24.672 150.162,26.056 153.94,26.056 C157.34,26.056 160.503,24.725 162.846,22.307 C165.167,19.912 166.445,16.708 166.445,13.283 L166.445,13.283 Z" id="Fill-7" sketch:type="MSShapeGroup"></path>
            </g>
        </g>
    </g>
</svg>
